<svg xmlns="http://www.w3.org/2000/svg" width="64" height="32" viewBox="0 0 64 32" shape-rendering="geometricPrecision">
<path d="M 27.500 8.500 C 27.400 8.600 26.900 9.400 26.500 9.500 C 26.100 9.600 23.900 9.400 23.500 9.500 C 23.100 9.600 22.700 10.400 22.500 10.500 C 22.300 10.600 21.700 10.400 21.500 10.500 C 21.300 10.600 20.600 11.300 20.500 11.500 C 20.400 11.700 20.800 12.100 20.500 12.500 C 20.200 12.900 17.800 14.800 17.500 15.500 C 17.200 16.200 17.400 19 17.500 19.500 C 17.600 20 18.400 20.300 18.500 20.500 C 18.600 20.700 18.400 21.300 18.500 21.500 C 18.600 21.700 19.300 22.400 19.500 22.500 C 19.700 22.600 20.300 22.400 20.500 22.500 C 20.700 22.600 20.900 23.400 21.500 23.500 C 22.100 23.600 25.900 23.400 26.500 23.500 C 27.100 23.600 26.400 24.400 27.500 24.500 C 28.600 24.600 36.400 24.600 37.500 24.500 C 38.600 24.400 37.900 23.600 38.500 23.500 C 39.100 23.400 42.900 23.600 43.500 23.500 C 44.100 23.400 44.300 22.600 44.500 22.500 C 44.700 22.400 45.200 22.700 45.500 22.500 C 45.800 22.300 47.300 20.900 47.500 20.500 C 47.700 20.100 47.400 18.800 47.500 18.500 C 47.600 18.200 48.400 17.700 48.500 17.500 C 48.600 17.300 48.800 16.900 48.500 16.500 C 48.200 16.100 45.800 13.900 45.500 13.500 C 45.200 13.100 45.700 12.800 45.500 12.500 C 45.300 12.200 43.800 10.700 43.500 10.500 C 43.200 10.300 42.700 10.600 42.500 10.500 C 42.300 10.400 41.900 9.600 41.500 9.500 C 41.100 9.400 38.900 9.600 38.500 9.500 C 38.100 9.400 38.500 8.600 37.500 8.500 C 36.500 8.400 29.400 8.500 28.500 8.500" fill="none" stroke="#00008b" stroke-width="0.500" stroke-linecap="round" stroke-linejoin="round"/>
<path d="M 19.500 14.500 C 19.700 14.700 19.100 16.300 21.500 16.500 C 23.900 16.700 41.100 16.700 43.500 16.500 C 45.900 16.300 45.300 14.600 45.500 14.500 C 45.700 14.400 45.500 15.400 45.500 15.500" fill="none" stroke="#00008b" stroke-width="0.500" stroke-linecap="round" stroke-linejoin="round"/>
</svg>
