<?xml version="1.0" encoding="UTF-8"?>
<svg width="1024" height="1024" viewBox="0 0 1024 1024" shape-rendering="geometricPrecision" xmlns="http://www.w3.org/2000/svg">
  <g transform="translate(0,-272) scale(1,2)">
    <path d="M 440.000 272.000 C 438.400 275.200 430.400 300.800 424.000 304.000 C 417.600 307.200 382.400 300.800 376.000 304.000
 C 369.600 307.200 363.200 332.800 360.000 336.000 C 356.800 339.200 347.200 332.800 344.000 336.000 C 340.800 339.200 329.600 361.600 328.000 368.000 C 326.400 374.400 332.800 387.200 328.000 400.000 C 323.200 412.800 284.800 473.600 280.000 496.000 C 275.200 518.400 278.400 608.000 280.000 624.000 C 281.600 640.000 294.400 649.600 296.000 656.000 C 297.600 662.400 294.400 681.600 296.000 688.000 C 297.600 694.400 308.800 716.800 312.000 720.000 C 315.200 723.200 324.800 716.800 328.000 720.000 C 331.200 723.200 334.400 748.800 344.000 752.000 C 353.600 755.200 414.400 748.800 424.000 752.000 C 433.600 755.200 422.400 780.800 440.000 784.000 C 457.600 787.200 582.400 787.200 600.000 784.000 C 617.600 780.800 606.400 755.200 616.000 752.000 C 625.600 748.800 686.400 755.200 696.000 752.000 C 705.600 748.800 708.800 723.200 712.000 720.000 C 715.200 716.800 723.200 726.400 728.000 720.000 C 732.800 713.600 756.800 668.800 760.000 656.000 C 763.200 643.200 758.400 601.600 760.000 592.000 C 761.600 582.400 774.400 566.400 776.000 560.000 C 777.600 553.600 780.800 540.800 776.000 528.000 C 771.200 515.200 732.800 444.800 728.000 432.000 C 723.200 419.200 731.200 409.600 728.000 400.000 C 724.800 390.400 700.800 342.400 696.000 336.000 C 691.200 329.600 683.200 339.200 680.000 336.000 C 676.800 332.800 670.400 307.200 664.000 304.000 C 657.600 300.800 622.400 307.200 616.000 304.000 C 609.600 300.800 616.000 275.200 600.000 272.000 C 584.000 268.800 470.400 272.000 456.000 272.000" fill="none" stroke="#00008b" stroke-width="0.500" stroke-linecap="round" stroke-linejoin="round" vector-effect="non-scaling-stroke" />
    <path d="M 312.000 464.000 C 315.200 470.400 305.600 521.600 344.000 528.000 C 382.400 534.400 657.600 534.400 696.000 528.000 C 734.400 521.600 724.800 467.200 728.000 464.000 C 731.200 460.800 728.000 492.800 728.000 496.000" fill="none" stroke="#00008b" stroke-width="0.500" stroke-linecap="round" stroke-linejoin="round" vector-effect="non-scaling-stroke" />
  </g>
</svg>
