<svg xmlns="http://www.w3.org/2000/svg" width="256" height="256" viewBox="0 0 256 256" shape-rendering="geometricPrecision">
<path d="M 108.500 69.500 C 108.500 70.400 108.400 77.500 108.500 78.500 C 108.600 79.500 109.400 79.300 109.500 79.500 C 109.600 79.700 109.400 80.300 109.500 80.500 C 109.600 80.700 110.400 81.300 110.500 81.500 C 110.600 81.700 110.200 82.100 110.500 82.500 C 110.800 82.900 113.100 85.200 113.500 85.500 C 113.900 85.800 114.100 85.200 114.500 85.500 C 114.900 85.800 117.200 87.800 117.500 88.500 C 117.800 89.200 117.600 92 117.500 92.500 C 117.400 93 117 93.800 116.500 93.500 C 116 93.200 112.900 90 112.500 89.500 C 112.100 89 112.400 88.700 112.500 88.500 C 112.600 88.300 113.400 87.700 113.500 87.500 C 113.600 87.300 113.500 86.600 113.500 86.500" fill="none" stroke="#00008b" stroke-width="0.500" stroke-linecap="round" stroke-linejoin="round"/>
<path d="M 148.500 69.500 C 148.500 70.300 148.600 76.600 148.500 77.500 C 148.400 78.400 147.600 78.300 147.500 78.500 C 147.400 78.700 147.600 79.300 147.500 79.500 C 147.400 79.700 146.600 80.300 146.500 80.500 C 146.400 80.700 146.700 81.200 146.500 81.500 C 146.300 81.800 144.700 83.200 144.500 83.500 C 144.300 83.800 144.700 84.200 144.500 84.500 C 144.300 84.800 142.900 86.300 142.500 86.500 C 142.100 86.700 140.700 86.400 140.500 86.500 C 140.300 86.600 140.600 87.300 140.500 87.500 C 140.400 87.700 139.600 88.200 139.500 88.500 C 139.400 88.800 139.400 90.200 139.500 90.500 C 139.600 90.800 140.200 91.400 140.500 91.500 C 140.800 91.600 142.100 91.700 142.500 91.500 C 142.900 91.300 144.300 89.800 144.500 89.500 C 144.700 89.200 144.600 88.700 144.500 88.500 C 144.400 88.300 143.600 87.700 143.500 87.500 C 143.400 87.300 143.600 86.500 143.500 86.500 C 143.400 86.500 142.600 87.300 142.500 87.500 C 142.400 87.700 142.700 88.200 142.500 88.500 C 142.300 88.800 140.600 90.300 140.500 90.500 C 140.400 90.700 141.400 90.500 141.500 90.500" fill="none" stroke="#00008b" stroke-width="0.500" stroke-linecap="round" stroke-linejoin="round"/>
<path d="M 140.500 92.500 C 140.100 92.900 138.500 96.100 136.500 96.500 C 134.500 96.900 122.400 96.800 120.500 96.500 C 118.600 96.200 117.800 93.800 117.500 93.500" fill="none" stroke="#00008b" stroke-width="0.500" stroke-linecap="round" stroke-linejoin="round"/>
<path d="M 139.500 94.500 C 139.300 94.700 137.700 96.100 137.500 96.500 C 137.300 96.900 137.400 98.200 137.500 98.500 C 137.600 98.800 138.300 99.400 138.500 99.500 C 138.700 99.600 138.700 98.800 139.500 99.500 C 140.300 100.200 145.800 105.700 146.500 106.500 C 147.200 107.300 146.400 107.300 146.500 107.500 C 146.600 107.700 147.400 108.300 147.500 108.500 C 147.600 108.700 147.400 109.300 147.500 109.500 C 147.600 109.700 148.400 110.100 148.500 110.500 C 148.600 110.900 148.400 113.100 148.500 113.500 C 148.600 113.900 149.400 114.100 149.500 114.500 C 149.600 114.900 149.400 117.100 149.500 117.500 C 149.600 117.900 150.400 117.900 150.500 118.500 C 150.600 119.100 150.400 122.900 150.500 123.500 C 150.600 124.100 151.400 123.600 151.500 124.500 C 151.600 125.400 151.600 131.600 151.500 132.500 C 151.400 133.400 150.600 132.900 150.500 133.500 C 150.400 134.100 150.600 137.900 150.500 138.500 C 150.400 139.100 149.600 139.200 149.500 139.500 C 149.400 139.800 149.600 141.200 149.500 141.500 C 149.400 141.800 148.600 142.100 148.500 142.500 C 148.400 142.900 148.600 145.100 148.500 145.500 C 148.400 145.900 147.600 146.300 147.500 146.500 C 147.400 146.700 147.600 147.300 147.500 147.500 C 147.400 147.700 146.600 148.300 146.500 148.500 C 146.400 148.700 146.700 149.200 146.500 149.500 C 146.300 149.800 144.700 151.200 144.500 151.500 C 144.300 151.800 144.800 152.100 144.500 152.500 C 144.200 152.900 141.900 155.200 141.500 155.500 C 141.100 155.800 140.800 155.300 140.500 155.500 C 140.200 155.700 139 157.300 138.500 157.500 C 138 157.700 135.900 157.400 135.500 157.500 C 135.100 157.600 135.100 158.400 134.500 158.500 C 133.900 158.600 130.100 158.400 129.500 158.500 C 128.900 158.600 128.700 159.400 128.500 159.500 C 128.300 159.600 127.700 159.600 127.500 159.500 C 127.300 159.400 127.100 158.600 126.500 158.500 C 125.900 158.400 122.100 158.600 121.500 158.500 C 120.900 158.400 120.800 157.600 120.500 157.500 C 120.200 157.400 118.800 157.600 118.500 157.500 C 118.200 157.400 117.700 156.600 117.500 156.500 C 117.300 156.400 117.300 157.200 116.500 156.500 C 115.700 155.800 110.200 150.300 109.500 149.500 C 108.800 148.700 109.600 148.700 109.500 148.500 C 109.400 148.300 108.600 147.800 108.500 147.500 C 108.400 147.200 108.600 145.800 108.500 145.500 C 108.400 145.200 107.600 144.800 107.500 144.500 C 107.400 144.200 107.600 142.800 107.500 142.500 C 107.400 142.200 106.600 141.900 106.500 141.500 C 106.400 141.100 106.600 138.900 106.500 138.500 C 106.400 138.100 105.600 137.900 105.500 137.500 C 105.400 137.100 105.600 134.900 105.500 134.500 C 105.400 134.100 104.600 134.700 104.500 133.500 C 104.400 132.300 104.400 123.700 104.500 122.500 C 104.600 121.300 105.400 121.900 105.500 121.500 C 105.600 121.100 105.400 118.900 105.500 118.500 C 105.600 118.100 106.400 117.900 106.500 117.500 C 106.600 117.100 106.400 114.900 106.500 114.500 C 106.600 114.100 107.400 113.800 107.500 113.500 C 107.600 113.200 107.400 111.800 107.500 111.500 C 107.600 111.200 108.400 110.700 108.500 110.500 C 108.600 110.300 108.400 109.700 108.500 109.500 C 108.600 109.300 109.400 108.700 109.500 108.500 C 109.600 108.300 109.300 107.800 109.500 107.500 C 109.700 107.200 111.300 105.800 111.500 105.500 C 111.700 105.200 111.100 105 111.500 104.500 C 111.900 104 115 100.900 115.500 100.500 C 116 100.100 116.300 100.600 116.500 100.500 C 116.700 100.400 117.300 99.600 117.500 99.500 C 117.700 99.400 118.200 99.700 118.500 99.500 C 118.800 99.300 120.400 97.700 120.500 97.500 C 120.600 97.300 119.600 97.500 119.500 97.500" fill="none" stroke="#00008b" stroke-width="0.500" stroke-linecap="round" stroke-linejoin="round"/>
</svg>
