<svg xmlns="http://www.w3.org/2000/svg" width="64" height="64" viewBox="0 0 64 64" shape-rendering="crispEdges">
<rect x="29" y="20" width="1" height="1" fill="#686fd047" />
<rect x="17" y="21" width="1" height="1" fill="#3f48cbcd" />
<rect x="18" y="21" width="1" height="1" fill="#3e48ccdf" />
<rect x="19" y="21" width="1" height="1" fill="#3e48ccdf" />
<rect x="20" y="21" width="1" height="1" fill="#3e48ccdf" />
<rect x="21" y="21" width="1" height="1" fill="#3e48ccdf" />
<rect x="22" y="21" width="1" height="1" fill="#3e48ccdf" />
<rect x="23" y="21" width="1" height="1" fill="#3e48ccdf" />
<rect x="24" y="21" width="1" height="1" fill="#3e48ccdf" />
<rect x="25" y="21" width="1" height="1" fill="#3e48ccdf" />
<rect x="26" y="21" width="1" height="1" fill="#3e48ccdf" />
<rect x="27" y="21" width="1" height="1" fill="#3e48ccdf" />
<rect x="28" y="21" width="1" height="1" fill="#3e48cbdb" />
<rect x="29" y="21" width="1" height="1" fill="#4850cec2" />
<rect x="35" y="21" width="1" height="1" fill="#4f56c744" />
<rect x="16" y="22" width="1" height="1" fill="#5e65d3b5" />
<rect x="17" y="22" width="1" height="1" fill="#3f47ccf2" />
<rect x="18" y="22" width="1" height="1" fill="#3f48cbfe" />
<rect x="19" y="22" width="1" height="1" fill="#3f48cbfe" />
<rect x="20" y="22" width="1" height="1" fill="#3f48cbfe" />
<rect x="21" y="22" width="1" height="1" fill="#3f48cbfe" />
<rect x="22" y="22" width="1" height="1" fill="#3e47cbf8" />
<rect x="23" y="22" width="1" height="1" fill="#3f47cbee" />
<rect x="24" y="22" width="1" height="1" fill="#3e47cbeb" />
<rect x="25" y="22" width="1" height="1" fill="#3e47cbeb" />
<rect x="26" y="22" width="1" height="1" fill="#3e48ccec" />
<rect x="27" y="22" width="1" height="1" fill="#3e48cbf3" />
<rect x="28" y="22" width="1" height="1" fill="#3f48cbfe" />
<rect x="29" y="22" width="1" height="1" fill="#3f48cbfa" />
<rect x="30" y="22" width="1" height="1" fill="#3e46cce4" />
<rect x="31" y="22" width="1" height="1" fill="#3d47cbdc" />
<rect x="32" y="22" width="1" height="1" fill="#3e48cbdb" />
<rect x="33" y="22" width="1" height="1" fill="#3e48cbdb" />
<rect x="34" y="22" width="1" height="1" fill="#3f49ccda" />
<rect x="35" y="22" width="1" height="1" fill="#414acac7" />
<rect x="37" y="22" width="1" height="1" fill="#777ddb56" />
<rect x="38" y="22" width="1" height="1" fill="#4f58bc3d" />
<rect x="15" y="23" width="1" height="1" fill="#5960d2aa" />
<rect x="16" y="23" width="1" height="1" fill="#3e49cce8" />
<rect x="17" y="23" width="1" height="1" fill="#3f48cbfe" />
<rect x="18" y="23" width="1" height="1" fill="#3f48ccff" />
<rect x="19" y="23" width="1" height="1" fill="#3f48ccff" />
<rect x="20" y="23" width="1" height="1" fill="#3f46ccf6" />
<rect x="21" y="23" width="1" height="1" fill="#3e49cce8" />
<rect x="22" y="23" width="1" height="1" fill="#4d55cfcb" />
<rect x="23" y="23" width="1" height="1" fill="#5c62d499" />
<rect x="24" y="23" width="1" height="1" fill="#3f49ca82" />
<rect x="25" y="23" width="1" height="1" fill="#3f49ca82" />
<rect x="26" y="23" width="1" height="1" fill="#5159ce8d" />
<rect x="27" y="23" width="1" height="1" fill="#585fd1b3" />
<rect x="28" y="23" width="1" height="1" fill="#3f49cbe1" />
<rect x="29" y="23" width="1" height="1" fill="#3e47cbeb" />
<rect x="30" y="23" width="1" height="1" fill="#3e47cbeb" />
<rect x="31" y="23" width="1" height="1" fill="#3e47cbeb" />
<rect x="32" y="23" width="1" height="1" fill="#3e47cbeb" />
<rect x="33" y="23" width="1" height="1" fill="#3e48ccf0" />
<rect x="34" y="23" width="1" height="1" fill="#3e47ccfc" />
<rect x="35" y="23" width="1" height="1" fill="#3f47cbfd" />
<rect x="36" y="23" width="1" height="1" fill="#3e49cce8" />
<rect x="37" y="23" width="1" height="1" fill="#3d47cbdc" />
<rect x="38" y="23" width="1" height="1" fill="#3f48ccc9" />
<rect x="40" y="23" width="1" height="1" fill="#7d85db5c" />
<rect x="41" y="23" width="1" height="1" fill="#4d51be3f" />
<rect x="14" y="24" width="1" height="1" fill="#3f49cc7e" />
<rect x="15" y="24" width="1" height="1" fill="#3f48cce2" />
<rect x="16" y="24" width="1" height="1" fill="#3f48cbfe" />
<rect x="17" y="24" width="1" height="1" fill="#3f48ccff" />
<rect x="18" y="24" width="1" height="1" fill="#3f48ccff" />
<rect x="19" y="24" width="1" height="1" fill="#3f47ccf1" />
<rect x="20" y="24" width="1" height="1" fill="#5058d0ca" />
<rect x="21" y="24" width="1" height="1" fill="#535ed196" />
<rect x="22" y="24" width="1" height="1" fill="#7278d862" />
<rect x="23" y="24" width="1" height="1" fill="#f2f9ff28" />
<rect x="24" y="24" width="1" height="1" fill="#80808002" />
<rect x="25" y="24" width="1" height="1" fill="#80808002" />
<rect x="26" y="24" width="1" height="1" fill="#ccccdd0f" />
<rect x="27" y="24" width="1" height="1" fill="#c3c7f044" />
<rect x="29" y="24" width="1" height="1" fill="#3e48cc8b" />
<rect x="30" y="24" width="1" height="1" fill="#4049ca8c" />
<rect x="31" y="24" width="1" height="1" fill="#4049ca8c" />
<rect x="32" y="24" width="1" height="1" fill="#4750cd90" />
<rect x="33" y="24" width="1" height="1" fill="#5962d3ae" />
<rect x="34" y="24" width="1" height="1" fill="#3f49ccdd" />
<rect x="35" y="24" width="1" height="1" fill="#3f48cced" />
<rect x="36" y="24" width="1" height="1" fill="#3f47cbee" />
<rect x="37" y="24" width="1" height="1" fill="#3f47ccf1" />
<rect x="38" y="24" width="1" height="1" fill="#3e48ccfb" />
<rect x="39" y="24" width="1" height="1" fill="#3f47cbea" />
<rect x="40" y="24" width="1" height="1" fill="#3f49ccda" />
<rect x="41" y="24" width="1" height="1" fill="#3f48ccc9" />
<rect x="14" y="25" width="1" height="1" fill="#4049ca8c" />
<rect x="15" y="25" width="1" height="1" fill="#3e47cbeb" />
<rect x="16" y="25" width="1" height="1" fill="#3f48ccff" />
<rect x="17" y="25" width="1" height="1" fill="#3f48ccff" />
<rect x="18" y="25" width="1" height="1" fill="#3e48cbf4" />
<rect x="19" y="25" width="1" height="1" fill="#4b55cec4" />
<rect x="20" y="25" width="1" height="1" fill="#878edf71" />
<rect x="21" y="25" width="1" height="1" fill="#f3f3ff29" />
<rect x="22" y="25" width="1" height="1" fill="#80808004" />
<rect x="28" y="25" width="1" height="1" fill="#5555aa03" />
<rect x="29" y="25" width="1" height="1" fill="#80808004" />
<rect x="30" y="25" width="1" height="1" fill="#80808004" />
<rect x="31" y="25" width="1" height="1" fill="#80808004" />
<rect x="32" y="25" width="1" height="1" fill="#aaaac609" />
<rect x="33" y="25" width="1" height="1" fill="#ddddf73c" />
<rect x="35" y="25" width="1" height="1" fill="#3d48cc92" />
<rect x="36" y="25" width="1" height="1" fill="#4049cc97" />
<rect x="37" y="25" width="1" height="1" fill="#555ad0af" />
<rect x="38" y="25" width="1" height="1" fill="#434dcddc" />
<rect x="39" y="25" width="1" height="1" fill="#3f47ccf1" />
<rect x="40" y="25" width="1" height="1" fill="#3f48cbfa" />
<rect x="41" y="25" width="1" height="1" fill="#3f47cbfd" />
<rect x="42" y="25" width="1" height="1" fill="#3f48ccdd" />
<rect x="14" y="26" width="1" height="1" fill="#4950ce93" />
<rect x="15" y="26" width="1" height="1" fill="#3e48ccec" />
<rect x="16" y="26" width="1" height="1" fill="#3f48ccff" />
<rect x="17" y="26" width="1" height="1" fill="#3f47ccf2" />
<rect x="18" y="26" width="1" height="1" fill="#4d55cfc0" />
<rect x="19" y="26" width="1" height="1" fill="#848bdf6e" />
<rect x="20" y="26" width="1" height="1" fill="#e9e9f822" />
<rect x="34" y="26" width="1" height="1" fill="#66669905" />
<rect x="35" y="26" width="1" height="1" fill="#6d6d9207" />
<rect x="36" y="26" width="1" height="1" fill="#8e8eaa09" />
<rect x="37" y="26" width="1" height="1" fill="#dee3f636" />
<rect x="39" y="26" width="1" height="1" fill="#565fd3a7" />
<rect x="40" y="26" width="1" height="1" fill="#434dccda" />
<rect x="41" y="26" width="1" height="1" fill="#3f48cbfa" />
<rect x="42" y="26" width="1" height="1" fill="#3f48cbfe" />
<rect x="43" y="26" width="1" height="1" fill="#3e48ccdf" />
<rect x="14" y="27" width="1" height="1" fill="#5962d2b7" />
<rect x="15" y="27" width="1" height="1" fill="#3f47ccf1" />
<rect x="16" y="27" width="1" height="1" fill="#3e47cbf8" />
<rect x="17" y="27" width="1" height="1" fill="#4e55cec2" />
<rect x="18" y="27" width="1" height="1" fill="#9297e36c" />
<rect x="19" y="27" width="1" height="1" fill="#e9e9f823" />
<rect x="38" y="27" width="1" height="1" fill="#99999905" />
<rect x="39" y="27" width="1" height="1" fill="#e5e5fa32" />
<rect x="41" y="27" width="1" height="1" fill="#424bccd4" />
<rect x="42" y="27" width="1" height="1" fill="#3f48cbfa" />
<rect x="43" y="27" width="1" height="1" fill="#3f48cbfe" />
<rect x="44" y="27" width="1" height="1" fill="#3f48ccde" />
<rect x="46" y="27" width="1" height="1" fill="#b1b4e952" />
<rect x="47" y="27" width="1" height="1" fill="#575eae26" />
<rect x="13" y="28" width="1" height="1" fill="#5d64d4a1" />
<rect x="14" y="28" width="1" height="1" fill="#4149cce7" />
<rect x="15" y="28" width="1" height="1" fill="#3f47cbfd" />
<rect x="16" y="28" width="1" height="1" fill="#3e48ccdf" />
<rect x="18" y="28" width="1" height="1" fill="#d6d6ea25" />
<rect x="40" y="28" width="1" height="1" fill="#ececf929" />
<rect x="42" y="28" width="1" height="1" fill="#444cccd1" />
<rect x="43" y="28" width="1" height="1" fill="#3e47cbf8" />
<rect x="44" y="28" width="1" height="1" fill="#3f47cbfd" />
<rect x="45" y="28" width="1" height="1" fill="#4048cbeb" />
<rect x="46" y="28" width="1" height="1" fill="#414accd1" />
<rect x="47" y="28" width="1" height="1" fill="#3e48cab8" />
<rect x="12" y="29" width="1" height="1" fill="#585fd2a3" />
<rect x="13" y="29" width="1" height="1" fill="#4049cbe6" />
<rect x="14" y="29" width="1" height="1" fill="#3e48ccf7" />
<rect x="15" y="29" width="1" height="1" fill="#3f47ccf1" />
<rect x="16" y="29" width="1" height="1" fill="#4b51cebc" />
<rect x="17" y="29" width="1" height="1" fill="#5b5fc643" />
<rect x="18" y="29" width="1" height="1" fill="#aaaaaa03" />
<rect x="41" y="29" width="1" height="1" fill="#edf3f92a" />
<rect x="43" y="29" width="1" height="1" fill="#434ecccf" />
<rect x="44" y="29" width="1" height="1" fill="#3e48cbf3" />
<rect x="45" y="29" width="1" height="1" fill="#3f46ccf6" />
<rect x="46" y="29" width="1" height="1" fill="#3f47cbf9" />
<rect x="47" y="29" width="1" height="1" fill="#3f47cbee" />
<rect x="48" y="29" width="1" height="1" fill="#5d65d3af" />
<rect x="11" y="30" width="1" height="1" fill="#585fd2a3" />
<rect x="12" y="30" width="1" height="1" fill="#414acbe6" />
<rect x="13" y="30" width="1" height="1" fill="#3f46ccf6" />
<rect x="14" y="30" width="1" height="1" fill="#4b52ced4" />
<rect x="15" y="30" width="1" height="1" fill="#4249cda7" />
<rect x="16" y="30" width="1" height="1" fill="#8e93e06a" />
<rect x="17" y="30" width="1" height="1" fill="#cfcfe720" />
<rect x="42" y="30" width="1" height="1" fill="#f3f3f92a" />
<rect x="44" y="30" width="1" height="1" fill="#3d48cca6" />
<rect x="45" y="30" width="1" height="1" fill="#4850cebd" />
<rect x="46" y="30" width="1" height="1" fill="#434cccde" />
<rect x="47" y="30" width="1" height="1" fill="#3e48ccfb" />
<rect x="48" y="30" width="1" height="1" fill="#3f48cbe5" />
<rect x="10" y="31" width="1" height="1" fill="#4a51cd8a" />
<rect x="11" y="31" width="1" height="1" fill="#4049cce4" />
<rect x="12" y="31" width="1" height="1" fill="#3f48cbfa" />
<rect x="13" y="31" width="1" height="1" fill="#4049cbdb" />
<rect x="14" y="31" width="1" height="1" fill="#9ca0e57e" />
<rect x="15" y="31" width="1" height="1" fill="#bbbbe32d" />
<rect x="16" y="31" width="1" height="1" fill="#7676b10d" />
<rect x="43" y="31" width="1" height="1" fill="#8b8ba20b" />
<rect x="44" y="31" width="1" height="1" fill="#63639c12" />
<rect x="45" y="31" width="1" height="1" fill="#c5c5e735" />
<rect x="47" y="31" width="1" height="1" fill="#3f48cbe5" />
<rect x="48" y="31" width="1" height="1" fill="#3f47cbfd" />
<rect x="49" y="31" width="1" height="1" fill="#4049cce3" />
<rect x="10" y="32" width="1" height="1" fill="#5056d0ba" />
<rect x="11" y="32" width="1" height="1" fill="#3e48cbf4" />
<rect x="12" y="32" width="1" height="1" fill="#3f47cbf9" />
<rect x="13" y="32" width="1" height="1" fill="#4750ceba" />
<rect x="14" y="32" width="1" height="1" fill="#676bc539" />
<rect x="15" y="32" width="1" height="1" fill="#99999905" />
<rect x="45" y="32" width="1" height="1" fill="#aaaaaa03" />
<rect x="46" y="32" width="1" height="1" fill="#6a71d148" />
<rect x="47" y="32" width="1" height="1" fill="#4049cbc6" />
<rect x="48" y="32" width="1" height="1" fill="#3f48cbfa" />
<rect x="49" y="32" width="1" height="1" fill="#3f47cbfd" />
<rect x="50" y="32" width="1" height="1" fill="#4049ccdf" />
<rect x="9" y="33" width="1" height="1" fill="#5b60d49f" />
<rect x="10" y="33" width="1" height="1" fill="#414acce8" />
<rect x="11" y="33" width="1" height="1" fill="#3e48ccfb" />
<rect x="12" y="33" width="1" height="1" fill="#4049ccdf" />
<rect x="13" y="33" width="1" height="1" fill="#969ce27c" />
<rect x="14" y="33" width="1" height="1" fill="#b9b9d31d" />
<rect x="46" y="33" width="1" height="1" fill="#dcdce51d" />
<rect x="48" y="33" width="1" height="1" fill="#414acbd1" />
<rect x="49" y="33" width="1" height="1" fill="#3e47ccfc" />
<rect x="50" y="33" width="1" height="1" fill="#3f47cbee" />
<rect x="51" y="33" width="1" height="1" fill="#3e49cd93" />
<rect x="8" y="34" width="1" height="1" fill="#4f56d08e" />
<rect x="9" y="34" width="1" height="1" fill="#424bcce3" />
<rect x="10" y="34" width="1" height="1" fill="#3f48cbfa" />
<rect x="11" y="34" width="1" height="1" fill="#3f47cbf9" />
<rect x="12" y="34" width="1" height="1" fill="#3f48ccd0" />
<rect x="13" y="34" width="1" height="1" fill="#6f73cb45" />
<rect x="14" y="34" width="1" height="1" fill="#cccccc05" />
<rect x="47" y="34" width="1" height="1" fill="#dbdbed2b" />
<rect x="49" y="34" width="1" height="1" fill="#3f48cbe5" />
<rect x="50" y="34" width="1" height="1" fill="#3f47cbee" />
<rect x="51" y="34" width="1" height="1" fill="#3e49cc97" />
<rect x="8" y="35" width="1" height="1" fill="#3f48cbad" />
<rect x="9" y="35" width="1" height="1" fill="#3e48cbf4" />
<rect x="10" y="35" width="1" height="1" fill="#3f47cbf9" />
<rect x="11" y="35" width="1" height="1" fill="#424cccd9" />
<rect x="12" y="35" width="1" height="1" fill="#4047cba8" />
<rect x="13" y="35" width="1" height="1" fill="#4e58bb31" />
<rect x="47" y="35" width="1" height="1" fill="#bfbfbf04" />
<rect x="48" y="35" width="1" height="1" fill="#6d73d352" />
<rect x="49" y="35" width="1" height="1" fill="#3f47ccd9" />
<rect x="50" y="35" width="1" height="1" fill="#3f48cced" />
<rect x="51" y="35" width="1" height="1" fill="#3e49cc97" />
<rect x="8" y="36" width="1" height="1" fill="#3f48cdb1" />
<rect x="9" y="36" width="1" height="1" fill="#3e48cbf3" />
<rect x="10" y="36" width="1" height="1" fill="#434dcddc" />
<rect x="12" y="36" width="1" height="1" fill="#898ed536" />
<rect x="13" y="36" width="1" height="1" fill="#6a6aaa0c" />
<rect x="48" y="36" width="1" height="1" fill="#4d54bd46" />
<rect x="49" y="36" width="1" height="1" fill="#3e48cbd7" />
<rect x="50" y="36" width="1" height="1" fill="#3f48cced" />
<rect x="51" y="36" width="1" height="1" fill="#3e49cc97" />
<rect x="8" y="37" width="1" height="1" fill="#3f48cdb1" />
<rect x="9" y="37" width="1" height="1" fill="#3f47ccf2" />
<rect x="10" y="37" width="1" height="1" fill="#3e48cbcb" />
<rect x="11" y="37" width="1" height="1" fill="#8c90d53c" />
<rect x="12" y="37" width="1" height="1" fill="#bfbfbf08" />
<rect x="48" y="37" width="1" height="1" fill="#4d54bd46" />
<rect x="49" y="37" width="1" height="1" fill="#3e48cbd7" />
<rect x="50" y="37" width="1" height="1" fill="#3f48cced" />
<rect x="51" y="37" width="1" height="1" fill="#3e49cc97" />
<rect x="8" y="38" width="1" height="1" fill="#3f48cdb1" />
<rect x="9" y="38" width="1" height="1" fill="#3f47ccf2" />
<rect x="10" y="38" width="1" height="1" fill="#3f48ccc9" />
<rect x="11" y="38" width="1" height="1" fill="#555bb02a" />
<rect x="47" y="38" width="1" height="1" fill="#ffffff01" />
<rect x="48" y="38" width="1" height="1" fill="#4b53be47" />
<rect x="49" y="38" width="1" height="1" fill="#3e48cbd7" />
<rect x="50" y="38" width="1" height="1" fill="#3f48cced" />
<rect x="51" y="38" width="1" height="1" fill="#3e49cc97" />
<rect x="8" y="39" width="1" height="1" fill="#3f48cdb1" />
<rect x="9" y="39" width="1" height="1" fill="#3f47ccf2" />
<rect x="10" y="39" width="1" height="1" fill="#3f48ccc9" />
<rect x="11" y="39" width="1" height="1" fill="#555bb02a" />
<rect x="47" y="39" width="1" height="1" fill="#e3e3e31b" />
<rect x="48" y="39" width="1" height="1" fill="#9398e36d" />
<rect x="49" y="39" width="1" height="1" fill="#3d47cbdc" />
<rect x="50" y="39" width="1" height="1" fill="#3f48cced" />
<rect x="51" y="39" width="1" height="1" fill="#3e49cc97" />
<rect x="8" y="40" width="1" height="1" fill="#3f48cdb1" />
<rect x="9" y="40" width="1" height="1" fill="#3f47ccf2" />
<rect x="10" y="40" width="1" height="1" fill="#3f48ccc9" />
<rect x="11" y="40" width="1" height="1" fill="#555bb02a" />
<rect x="47" y="40" width="1" height="1" fill="#7079cb3b" />
<rect x="48" y="40" width="1" height="1" fill="#5b66d4ad" />
<rect x="49" y="40" width="1" height="1" fill="#3f47ccf2" />
<rect x="50" y="40" width="1" height="1" fill="#3f48cced" />
<rect x="51" y="40" width="1" height="1" fill="#3e49cc97" />
<rect x="8" y="41" width="1" height="1" fill="#3f48cdb1" />
<rect x="9" y="41" width="1" height="1" fill="#3f47ccf2" />
<rect x="10" y="41" width="1" height="1" fill="#3f48ccc9" />
<rect x="11" y="41" width="1" height="1" fill="#555bb02a" />
<rect x="46" y="41" width="1" height="1" fill="#eaeaea18" />
<rect x="47" y="41" width="1" height="1" fill="#888cdf6f" />
<rect x="48" y="41" width="1" height="1" fill="#3e48cbd7" />
<rect x="49" y="41" width="1" height="1" fill="#3f47cbfd" />
<rect x="50" y="41" width="1" height="1" fill="#3e47cce7" />
<rect x="51" y="41" width="1" height="1" fill="#4047cc88" />
<rect x="8" y="42" width="1" height="1" fill="#3f48cdb1" />
<rect x="9" y="42" width="1" height="1" fill="#3e48cbf3" />
<rect x="10" y="42" width="1" height="1" fill="#434accd1" />
<rect x="11" y="42" width="1" height="1" fill="#b3b6ea57" />
<rect x="12" y="42" width="1" height="1" fill="#d1d1d10b" />
<rect x="45" y="42" width="1" height="1" fill="#eaeaea18" />
<rect x="46" y="42" width="1" height="1" fill="#adb0e857" />
<rect x="47" y="42" width="1" height="1" fill="#5f66d4b2" />
<rect x="48" y="42" width="1" height="1" fill="#3f47ccf1" />
<rect x="49" y="42" width="1" height="1" fill="#3f47cbee" />
<rect x="50" y="42" width="1" height="1" fill="#535cd1b5" />
<rect x="8" y="43" width="1" height="1" fill="#3f48cdb1" />
<rect x="9" y="43" width="1" height="1" fill="#3e48cbf4" />
<rect x="10" y="43" width="1" height="1" fill="#3f49ccec" />
<rect x="11" y="43" width="1" height="1" fill="#676cd5ae" />
<rect x="46" y="43" width="1" height="1" fill="#6269d6b3" />
<rect x="47" y="43" width="1" height="1" fill="#3e49cce8" />
<rect x="48" y="43" width="1" height="1" fill="#3f47cbf5" />
<rect x="49" y="43" width="1" height="1" fill="#5258d0c7" />
<rect x="8" y="44" width="1" height="1" fill="#4048cca4" />
<rect x="9" y="44" width="1" height="1" fill="#3e48cbf3" />
<rect x="10" y="44" width="1" height="1" fill="#3f48cbfe" />
<rect x="11" y="44" width="1" height="1" fill="#3e48ccf0" />
<rect x="12" y="44" width="1" height="1" fill="#3e47cce7" />
<rect x="13" y="44" width="1" height="1" fill="#3f48cbe5" />
<rect x="14" y="44" width="1" height="1" fill="#3f48cbe5" />
<rect x="15" y="44" width="1" height="1" fill="#3f48cbe5" />
<rect x="16" y="44" width="1" height="1" fill="#3f48cbe5" />
<rect x="17" y="44" width="1" height="1" fill="#3f48cbe5" />
<rect x="18" y="44" width="1" height="1" fill="#3f48cbe5" />
<rect x="19" y="44" width="1" height="1" fill="#3f48cbe5" />
<rect x="20" y="44" width="1" height="1" fill="#3f48cbe5" />
<rect x="21" y="44" width="1" height="1" fill="#3f48cbe5" />
<rect x="22" y="44" width="1" height="1" fill="#3f48cbe5" />
<rect x="23" y="44" width="1" height="1" fill="#3f48cbe5" />
<rect x="24" y="44" width="1" height="1" fill="#3f48cbe5" />
<rect x="25" y="44" width="1" height="1" fill="#3f48cbe5" />
<rect x="26" y="44" width="1" height="1" fill="#3f48cbe5" />
<rect x="27" y="44" width="1" height="1" fill="#3f48cbe5" />
<rect x="28" y="44" width="1" height="1" fill="#3f48cbe5" />
<rect x="29" y="44" width="1" height="1" fill="#3f48cbe5" />
<rect x="30" y="44" width="1" height="1" fill="#3f48cbe5" />
<rect x="31" y="44" width="1" height="1" fill="#3f48cbe5" />
<rect x="32" y="44" width="1" height="1" fill="#3f48cbe5" />
<rect x="33" y="44" width="1" height="1" fill="#3f48cbe5" />
<rect x="34" y="44" width="1" height="1" fill="#3f48cbe5" />
<rect x="35" y="44" width="1" height="1" fill="#3f48cbe5" />
<rect x="36" y="44" width="1" height="1" fill="#3f48cbe5" />
<rect x="37" y="44" width="1" height="1" fill="#3f48cbe5" />
<rect x="38" y="44" width="1" height="1" fill="#3f48cbe5" />
<rect x="39" y="44" width="1" height="1" fill="#3f48cbe5" />
<rect x="40" y="44" width="1" height="1" fill="#3f48cbe5" />
<rect x="41" y="44" width="1" height="1" fill="#3f48cbe5" />
<rect x="42" y="44" width="1" height="1" fill="#3f48cbe5" />
<rect x="43" y="44" width="1" height="1" fill="#3f48cbe5" />
<rect x="44" y="44" width="1" height="1" fill="#3f48cbe5" />
<rect x="45" y="44" width="1" height="1" fill="#3e47cce7" />
<rect x="46" y="44" width="1" height="1" fill="#3f47ccf2" />
<rect x="47" y="44" width="1" height="1" fill="#3f48ccff" />
<rect x="48" y="44" width="1" height="1" fill="#3f48cced" />
<rect x="49" y="44" width="1" height="1" fill="#4f58d19a" />
<rect x="9" y="45" width="1" height="1" fill="#444ccdce" />
<rect x="10" y="45" width="1" height="1" fill="#3e47cbf8" />
<rect x="11" y="45" width="1" height="1" fill="#3f48ccff" />
<rect x="12" y="45" width="1" height="1" fill="#3f48cbfe" />
<rect x="13" y="45" width="1" height="1" fill="#3e47cbef" />
<rect x="14" y="45" width="1" height="1" fill="#3e47cce7" />
<rect x="15" y="45" width="1" height="1" fill="#3f48cbe5" />
<rect x="16" y="45" width="1" height="1" fill="#3f48cbe5" />
<rect x="17" y="45" width="1" height="1" fill="#3f48cbe5" />
<rect x="18" y="45" width="1" height="1" fill="#3f48cbe5" />
<rect x="19" y="45" width="1" height="1" fill="#3f48cbe5" />
<rect x="20" y="45" width="1" height="1" fill="#3f48cbe5" />
<rect x="21" y="45" width="1" height="1" fill="#3f48cbe5" />
<rect x="22" y="45" width="1" height="1" fill="#3f48cbe5" />
<rect x="23" y="45" width="1" height="1" fill="#3f48cbe5" />
<rect x="24" y="45" width="1" height="1" fill="#3f48cbe5" />
<rect x="25" y="45" width="1" height="1" fill="#3f48cbe5" />
<rect x="26" y="45" width="1" height="1" fill="#3f48cbe5" />
<rect x="27" y="45" width="1" height="1" fill="#3f48cbe5" />
<rect x="28" y="45" width="1" height="1" fill="#3f48cbe5" />
<rect x="29" y="45" width="1" height="1" fill="#3f48cbe5" />
<rect x="30" y="45" width="1" height="1" fill="#3f48cbe5" />
<rect x="31" y="45" width="1" height="1" fill="#3f48cbe5" />
<rect x="32" y="45" width="1" height="1" fill="#3f48cbe5" />
<rect x="33" y="45" width="1" height="1" fill="#3f48cbe5" />
<rect x="34" y="45" width="1" height="1" fill="#3f48cbe5" />
<rect x="35" y="45" width="1" height="1" fill="#3f48cbe5" />
<rect x="36" y="45" width="1" height="1" fill="#3f48cbe5" />
<rect x="37" y="45" width="1" height="1" fill="#3f48cbe5" />
<rect x="38" y="45" width="1" height="1" fill="#3f48cbe5" />
<rect x="39" y="45" width="1" height="1" fill="#3f48cbe5" />
<rect x="40" y="45" width="1" height="1" fill="#3f48cbe5" />
<rect x="41" y="45" width="1" height="1" fill="#3f48cbe5" />
<rect x="42" y="45" width="1" height="1" fill="#3f48cbe5" />
<rect x="43" y="45" width="1" height="1" fill="#3f48cbe5" />
<rect x="44" y="45" width="1" height="1" fill="#3f48cbe5" />
<rect x="45" y="45" width="1" height="1" fill="#3e49cce8" />
<rect x="46" y="45" width="1" height="1" fill="#3f47cbf5" />
<rect x="47" y="45" width="1" height="1" fill="#3f48cbfe" />
<rect x="48" y="45" width="1" height="1" fill="#3e47cbeb" />
<rect x="49" y="45" width="1" height="1" fill="#4049ca8c" />
<rect x="10" y="46" width="1" height="1" fill="#444cccdb" />
<rect x="11" y="46" width="1" height="1" fill="#3e48ccfb" />
<rect x="12" y="46" width="1" height="1" fill="#4048ccf2" />
<rect x="13" y="46" width="1" height="1" fill="#6c72d7c0" />
<rect x="46" y="46" width="1" height="1" fill="#5a62d3cd" />
<rect x="47" y="46" width="1" height="1" fill="#3e47cbf8" />
<rect x="48" y="46" width="1" height="1" fill="#3e47cbeb" />
<rect x="49" y="46" width="1" height="1" fill="#4049ca8c" />
<rect x="10" y="47" width="1" height="1" fill="#4d55ceb2" />
<rect x="11" y="47" width="1" height="1" fill="#3e48cbf4" />
<rect x="12" y="47" width="1" height="1" fill="#3e47cbef" />
<rect x="14" y="47" width="1" height="1" fill="#dcdcf742" />
<rect x="15" y="47" width="1" height="1" fill="#c6c6c609" />
<rect x="45" y="47" width="1" height="1" fill="#9094da45" />
<rect x="47" y="47" width="1" height="1" fill="#3f47ccf2" />
<rect x="48" y="47" width="1" height="1" fill="#3f48cbe6" />
<rect x="49" y="47" width="1" height="1" fill="#4047cd84" />
<rect x="10" y="48" width="1" height="1" fill="#3f48cb99" />
<rect x="11" y="48" width="1" height="1" fill="#3f47ccf1" />
<rect x="12" y="48" width="1" height="1" fill="#3f48cbfe" />
<rect x="13" y="48" width="1" height="1" fill="#3f48ccdd" />
<rect x="15" y="48" width="1" height="1" fill="#afafdb23" />
<rect x="46" y="48" width="1" height="1" fill="#3f46cbd2" />
<rect x="47" y="48" width="1" height="1" fill="#3e48ccf7" />
<rect x="48" y="48" width="1" height="1" fill="#4d55cfcb" />
<rect x="11" y="49" width="1" height="1" fill="#424bccd6" />
<rect x="12" y="49" width="1" height="1" fill="#3f48cbfa" />
<rect x="13" y="49" width="1" height="1" fill="#3f47cbfd" />
<rect x="14" y="49" width="1" height="1" fill="#3e47cbc8" />
<rect x="15" y="49" width="1" height="1" fill="#4b54bc3d" />
<rect x="46" y="49" width="1" height="1" fill="#3f48ccde" />
<rect x="47" y="49" width="1" height="1" fill="#3e47cbeb" />
<rect x="48" y="49" width="1" height="1" fill="#5e64d49b" />
<rect x="12" y="50" width="1" height="1" fill="#444dcddd" />
<rect x="13" y="50" width="1" height="1" fill="#3e48ccfb" />
<rect x="14" y="50" width="1" height="1" fill="#3f49ccda" />
<rect x="15" y="50" width="1" height="1" fill="#7d82d55c" />
<rect x="16" y="50" width="1" height="1" fill="#aaaaaa09" />
<rect x="46" y="50" width="1" height="1" fill="#3e48ccdf" />
<rect x="47" y="50" width="1" height="1" fill="#3e49cce8" />
<rect x="48" y="50" width="1" height="1" fill="#3f49ca82" />
<rect x="12" y="51" width="1" height="1" fill="#535ad0af" />
<rect x="13" y="51" width="1" height="1" fill="#3f47ccf1" />
<rect x="14" y="51" width="1" height="1" fill="#3e49cce8" />
<rect x="16" y="51" width="1" height="1" fill="#a1a4e749" />
<rect x="17" y="51" width="1" height="1" fill="#5b6da40e" />
<rect x="46" y="51" width="1" height="1" fill="#3e48ccdf" />
<rect x="47" y="51" width="1" height="1" fill="#3e49cce8" />
<rect x="48" y="51" width="1" height="1" fill="#3f49ca82" />
<rect x="12" y="52" width="1" height="1" fill="#404bcd93" />
<rect x="13" y="52" width="1" height="1" fill="#3f48cced" />
<rect x="14" y="52" width="1" height="1" fill="#3f47cbfd" />
<rect x="15" y="52" width="1" height="1" fill="#4048cce7" />
<rect x="16" y="52" width="1" height="1" fill="#404bccba" />
<rect x="17" y="52" width="1" height="1" fill="#6f72d84e" />
<rect x="18" y="52" width="1" height="1" fill="#bfbfbf08" />
<rect x="46" y="52" width="1" height="1" fill="#3e48ccdf" />
<rect x="47" y="52" width="1" height="1" fill="#3e49cce8" />
<rect x="48" y="52" width="1" height="1" fill="#3f49ca82" />
<rect x="13" y="53" width="1" height="1" fill="#424bccd4" />
<rect x="14" y="53" width="1" height="1" fill="#3e48cbf4" />
<rect x="15" y="53" width="1" height="1" fill="#3e48ccfb" />
<rect x="16" y="53" width="1" height="1" fill="#3e49cce8" />
<rect x="18" y="53" width="1" height="1" fill="#aaade74b" />
<rect x="19" y="53" width="1" height="1" fill="#575eae26" />
<rect x="20" y="53" width="1" height="1" fill="#9090bc17" />
<rect x="21" y="53" width="1" height="1" fill="#b6b6b607" />
<rect x="44" y="53" width="1" height="1" fill="#cccccc0a" />
<rect x="46" y="53" width="1" height="1" fill="#3d47cbe0" />
<rect x="47" y="53" width="1" height="1" fill="#3e49cce8" />
<rect x="48" y="53" width="1" height="1" fill="#3f49ca82" />
<rect x="14" y="54" width="1" height="1" fill="#4d55d1b5" />
<rect x="15" y="54" width="1" height="1" fill="#434bcbe6" />
<rect x="16" y="54" width="1" height="1" fill="#3e48ccfb" />
<rect x="17" y="54" width="1" height="1" fill="#4048cce7" />
<rect x="18" y="54" width="1" height="1" fill="#424ccdce" />
<rect x="19" y="54" width="1" height="1" fill="#3e47cbbc" />
<rect x="21" y="54" width="1" height="1" fill="#dedef636" />
<rect x="22" y="54" width="1" height="1" fill="#b6b6b607" />
<rect x="43" y="54" width="1" height="1" fill="#b6b6b607" />
<rect x="44" y="54" width="1" height="1" fill="#d3d7f23a" />
<rect x="46" y="54" width="1" height="1" fill="#3e49cce8" />
<rect x="47" y="54" width="1" height="1" fill="#3e49cce8" />
<rect x="48" y="54" width="1" height="1" fill="#3f49ca82" />
<rect x="15" y="55" width="1" height="1" fill="#646ad5a8" />
<rect x="16" y="55" width="1" height="1" fill="#3e47cce7" />
<rect x="17" y="55" width="1" height="1" fill="#3e48ccf7" />
<rect x="18" y="55" width="1" height="1" fill="#3f47cbf9" />
<rect x="19" y="55" width="1" height="1" fill="#3f48cbfa" />
<rect x="20" y="55" width="1" height="1" fill="#4049cbdb" />
<rect x="22" y="55" width="1" height="1" fill="#dfdff637" />
<rect x="23" y="55" width="1" height="1" fill="#aaaaaa06" />
<rect x="43" y="55" width="1" height="1" fill="#d2d7f42d" />
<rect x="45" y="55" width="1" height="1" fill="#434bccd4" />
<rect x="46" y="55" width="1" height="1" fill="#3f47cbf9" />
<rect x="47" y="55" width="1" height="1" fill="#3e47cce3" />
<rect x="48" y="55" width="1" height="1" fill="#3e48cd7f" />
<rect x="16" y="56" width="1" height="1" fill="#3f46cba3" />
<rect x="17" y="56" width="1" height="1" fill="#4951cdc0" />
<rect x="18" y="56" width="1" height="1" fill="#414acde1" />
<rect x="19" y="56" width="1" height="1" fill="#3e48ccfb" />
<rect x="20" y="56" width="1" height="1" fill="#3e47ccfc" />
<rect x="21" y="56" width="1" height="1" fill="#3f49ccdd" />
<rect x="23" y="56" width="1" height="1" fill="#d9def636" />
<rect x="24" y="56" width="1" height="1" fill="#b6b6b607" />
<rect x="42" y="56" width="1" height="1" fill="#bfbfbf08" />
<rect x="44" y="56" width="1" height="1" fill="#434ecccf" />
<rect x="45" y="56" width="1" height="1" fill="#3f46ccf6" />
<rect x="46" y="56" width="1" height="1" fill="#454ecce3" />
<rect x="47" y="56" width="1" height="1" fill="#4650ccb0" />
<rect x="19" y="57" width="1" height="1" fill="#424accd3" />
<rect x="20" y="57" width="1" height="1" fill="#3e47ccfc" />
<rect x="21" y="57" width="1" height="1" fill="#3e47ccfc" />
<rect x="22" y="57" width="1" height="1" fill="#3f48cbe0" />
<rect x="24" y="57" width="1" height="1" fill="#e3e3f637" />
<rect x="25" y="57" width="1" height="1" fill="#cccccc05" />
<rect x="41" y="57" width="1" height="1" fill="#aaaaaa06" />
<rect x="42" y="57" width="1" height="1" fill="#dfdff637" />
<rect x="44" y="57" width="1" height="1" fill="#3f48cae9" />
<rect x="45" y="57" width="1" height="1" fill="#3e47cbeb" />
<rect x="20" y="58" width="1" height="1" fill="#414acbd7" />
<rect x="21" y="58" width="1" height="1" fill="#3e47ccfc" />
<rect x="22" y="58" width="1" height="1" fill="#3f47cbfd" />
<rect x="23" y="58" width="1" height="1" fill="#3f49cbdc" />
<rect x="25" y="58" width="1" height="1" fill="#e3e3f637" />
<rect x="26" y="58" width="1" height="1" fill="#cccccc05" />
<rect x="41" y="58" width="1" height="1" fill="#dadff430" />
<rect x="43" y="58" width="1" height="1" fill="#474fcdd3" />
<rect x="44" y="58" width="1" height="1" fill="#3e48ccfb" />
<rect x="45" y="58" width="1" height="1" fill="#3f48cbe6" />
<rect x="21" y="59" width="1" height="1" fill="#3f4accd5" />
<rect x="22" y="59" width="1" height="1" fill="#3e47ccfc" />
<rect x="23" y="59" width="1" height="1" fill="#3e47ccfc" />
<rect x="24" y="59" width="1" height="1" fill="#3f49ccdd" />
<rect x="26" y="59" width="1" height="1" fill="#d5d5f443" />
<rect x="27" y="59" width="1" height="1" fill="#8787b411" />
<rect x="28" y="59" width="1" height="1" fill="#8080990a" />
<rect x="29" y="59" width="1" height="1" fill="#bfbfbf04" />
<rect x="40" y="59" width="1" height="1" fill="#9f9fbf08" />
<rect x="42" y="59" width="1" height="1" fill="#474fcdce" />
<rect x="43" y="59" width="1" height="1" fill="#3e48ccf7" />
<rect x="44" y="59" width="1" height="1" fill="#3e47ccfc" />
<rect x="45" y="59" width="1" height="1" fill="#3f48cce2" />
<rect x="22" y="60" width="1" height="1" fill="#4149ccd3" />
<rect x="23" y="60" width="1" height="1" fill="#3e47ccfc" />
<rect x="24" y="60" width="1" height="1" fill="#3e47ccfc" />
<rect x="25" y="60" width="1" height="1" fill="#434acbe6" />
<rect x="26" y="60" width="1" height="1" fill="#4c54cebd" />
<rect x="27" y="60" width="1" height="1" fill="#3f49caa5" />
<rect x="29" y="60" width="1" height="1" fill="#dce0f63a" />
<rect x="30" y="60" width="1" height="1" fill="#b6b6b607" />
<rect x="38" y="60" width="1" height="1" fill="#bfbfbf04" />
<rect x="39" y="60" width="1" height="1" fill="#7171aa09" />
<rect x="40" y="60" width="1" height="1" fill="#dde1f73c" />
<rect x="42" y="60" width="1" height="1" fill="#3f48cae9" />
<rect x="43" y="60" width="1" height="1" fill="#3f47cbfd" />
<rect x="44" y="60" width="1" height="1" fill="#4149cce5" />
<rect x="45" y="60" width="1" height="1" fill="#4049ccba" />
<rect x="23" y="61" width="1" height="1" fill="#4047cbd6" />
<rect x="24" y="61" width="1" height="1" fill="#3e48ccfb" />
<rect x="25" y="61" width="1" height="1" fill="#3e48ccfb" />
<rect x="26" y="61" width="1" height="1" fill="#3e48cbf4" />
<rect x="27" y="61" width="1" height="1" fill="#3f47ccf2" />
<rect x="28" y="61" width="1" height="1" fill="#414accde" />
<rect x="30" y="61" width="1" height="1" fill="#dadaf444" />
<rect x="31" y="61" width="1" height="1" fill="#9db1c40d" />
<rect x="32" y="61" width="1" height="1" fill="#6d6d9207" />
<rect x="33" y="61" width="1" height="1" fill="#6d6d9207" />
<rect x="34" y="61" width="1" height="1" fill="#6d6d9207" />
<rect x="35" y="61" width="1" height="1" fill="#6d6d9207" />
<rect x="36" y="61" width="1" height="1" fill="#6d6d9207" />
<rect x="37" y="61" width="1" height="1" fill="#8080b30a" />
<rect x="38" y="61" width="1" height="1" fill="#e8e8fa38" />
<rect x="40" y="61" width="1" height="1" fill="#4e58d0a9" />
<rect x="41" y="61" width="1" height="1" fill="#4851cddf" />
<rect x="42" y="61" width="1" height="1" fill="#3f48cbfa" />
<rect x="43" y="61" width="1" height="1" fill="#3f47cbea" />
<rect x="24" y="62" width="1" height="1" fill="#3d48ccbf" />
<rect x="25" y="62" width="1" height="1" fill="#4048cbd2" />
<rect x="26" y="62" width="1" height="1" fill="#4049cce3" />
<rect x="27" y="62" width="1" height="1" fill="#3e47ccfc" />
<rect x="28" y="62" width="1" height="1" fill="#3e48ccfb" />
<rect x="29" y="62" width="1" height="1" fill="#3f49cbe5" />
<rect x="30" y="62" width="1" height="1" fill="#545ccfb6" />
<rect x="31" y="62" width="1" height="1" fill="#454dce9b" />
<rect x="32" y="62" width="1" height="1" fill="#3e49cc97" />
<rect x="33" y="62" width="1" height="1" fill="#3e49cc97" />
<rect x="34" y="62" width="1" height="1" fill="#3e49cc97" />
<rect x="35" y="62" width="1" height="1" fill="#3e49cc97" />
<rect x="36" y="62" width="1" height="1" fill="#3e49cc97" />
<rect x="37" y="62" width="1" height="1" fill="#4048cd98" />
<rect x="38" y="62" width="1" height="1" fill="#525ad1ac" />
<rect x="39" y="62" width="1" height="1" fill="#484fced7" />
<rect x="40" y="62" width="1" height="1" fill="#3e47cbef" />
<rect x="41" y="62" width="1" height="1" fill="#3e47cbf8" />
<rect x="42" y="62" width="1" height="1" fill="#3e47ccfc" />
<rect x="43" y="62" width="1" height="1" fill="#424acbd2" />
<rect x="27" y="63" width="1" height="1" fill="#424accd0" />
<rect x="28" y="63" width="1" height="1" fill="#3e47ccfc" />
<rect x="29" y="63" width="1" height="1" fill="#3f47cbfd" />
<rect x="30" y="63" width="1" height="1" fill="#3e48cbf4" />
<rect x="31" y="63" width="1" height="1" fill="#3f47ccf1" />
<rect x="32" y="63" width="1" height="1" fill="#3f47ccf1" />
<rect x="33" y="63" width="1" height="1" fill="#3f47ccf1" />
<rect x="34" y="63" width="1" height="1" fill="#3f47ccf1" />
<rect x="35" y="63" width="1" height="1" fill="#3f47ccf1" />
<rect x="36" y="63" width="1" height="1" fill="#3f47ccf1" />
<rect x="37" y="63" width="1" height="1" fill="#3f47ccf1" />
<rect x="38" y="63" width="1" height="1" fill="#3e48cbf3" />
<rect x="39" y="63" width="1" height="1" fill="#3f48cbfa" />
<rect x="40" y="63" width="1" height="1" fill="#3f47cbfd" />
<rect x="41" y="63" width="1" height="1" fill="#4149cce7" />
<rect x="42" y="63" width="1" height="1" fill="#3e46cac7" />
</svg>
