<?xml version="1.0" standalone="no"?>
<!DOCTYPE svg PUBLIC "-//W3C//DTD SVG 20010904//EN"
 "http://www.w3.org/TR/2001/REC-SVG-20010904/DTD/svg10.dtd">
<svg version="1.0" xmlns="http://www.w3.org/2000/svg"
 width="64.000000pt" height="64.000000pt" viewBox="0 0 64.000000 64.000000"
 preserveAspectRatio="xMidYMid meet">
<metadata>
Created by potrace 1.16, written by Peter Selinger 2001-2019
</metadata>
<g transform="translate(0.000000,64.000000) scale(0.100000,-0.100000)"
fill="#000000" stroke="none">
<path d="M0 320 l0 -320 320 0 320 0 0 320 0 320 -320 0 -320 0 0 -320z m280
78 c0 -5 -12 -8 -26 -8 -18 0 -38 -13 -65 -42 -22 -24 -39 -46 -39 -50 0 -5
-4 -8 -10 -8 -20 0 -9 18 38 67 34 35 54 49 75 48 15 0 27 -3 27 -7z m60 -8
c0 -5 -12 -10 -27 -9 l-28 1 25 8 c14 4 26 8 28 9 1 1 2 -3 2 -9z m48 -16 c4
2 18 -11 32 -28 l25 -31 -33 28 c-19 15 -38 27 -43 27 -6 0 -7 5 -3 12 6 9 9
9 12 0 2 -7 7 -10 10 -8z m-238 -7 c0 -2 -10 -12 -22 -23 l-23 -19 19 23 c18
21 26 27 26 19z m334 -86 c-5 -6 -33 31 -33 44 -1 6 8 -1 19 -15 10 -14 17
-27 14 -29z m-354 -11 c0 -5 -5 -10 -11 -10 -5 0 -7 5 -4 10 3 6 8 10 11 10 2
0 4 -4 4 -10z m350 -49 c-15 -30 -31 -17 -17 14 7 13 16 20 20 16 5 -5 4 -18
-3 -30z m-350 -5 c0 -3 -4 -8 -10 -11 -5 -3 -10 -1 -10 4 0 6 5 11 10 11 6 0
10 -2 10 -4z m30 -58 c0 -6 -6 -5 -15 2 -8 7 -15 14 -15 16 0 2 7 1 15 -2 8
-4 15 -11 15 -16z m17 -33 c8 -9 13 -18 11 -21 -3 -2 -13 5 -23 16 -21 23 -11
27 12 5z m68 -45 c16 -16 34 -30 41 -30 17 0 37 -27 26 -34 -6 -3 -12 1 -16 9
-3 8 -11 15 -19 15 -7 0 -28 16 -47 35 -19 19 -29 35 -24 35 6 0 23 -13 39
-30z m184 -12 c-25 -36 -38 -48 -54 -48 -5 0 0 8 11 18 12 9 29 30 39 45 10
15 20 25 22 23 3 -3 -5 -20 -18 -38z"/>
</g>
</svg>
