<svg xmlns="http://www.w3.org/2000/svg" width="64" height="64" viewBox="0 0 64 64" shape-rendering="geometricPrecision">
<path d="M 22.500 21.500 C 22.400 21.600 21.900 22.400 21.500 22.500 C 21.100 22.600 18.800 22.400 18.500 22.500 C 18.200 22.600 18.800 23.100 18.500 23.500 C 18.200 23.900 15.800 26 15.500 26.500 C 15.200 27 15.900 27.900 15.500 28.500 C 15.100 29.100 11.900 32 11.500 32.500 C 11.100 33 11.700 33.200 11.500 33.500 C 11.300 33.800 9.700 34.400 9.500 35.500 C 9.300 36.600 9.400 43.600 9.500 44.500 C 9.600 45.400 10.300 44.400 10.500 44.500 C 10.700 44.600 11.400 45.100 11.500 45.500 C 11.600 45.900 11.300 48 11.500 48.500 C 11.700 49 13.300 50.100 13.500 50.500 C 13.700 50.900 13.400 52.300 13.500 52.500 C 13.600 52.700 14.200 52.300 14.500 52.500 C 14.800 52.700 16.100 54.300 16.500 54.500 C 16.900 54.700 17.600 53.800 18.500 54.500 C 19.400 55.200 24.600 60.800 25.500 61.500 C 26.400 62.200 27.300 61.300 27.500 61.500 C 27.700 61.700 26.100 63.300 27.500 63.500 C 28.900 63.700 40 63.600 41.500 63.500 C 43 63.400 42.400 62.800 42.500 62.500 C 42.600 62.200 42.300 60.900 42.500 60.500 C 42.700 60.100 44.300 58.800 44.500 58.500 C 44.700 58.200 44.300 57.800 44.500 57.500 C 44.700 57.200 46.300 56.300 46.500 55.500 C 46.700 54.700 46.400 50.200 46.500 49.500 C 46.600 48.800 47.400 48.900 47.500 48.500 C 47.600 48.100 47.600 45.900 47.500 45.500 C 47.400 45.100 50 44.600 46.500 44.500 C 43 44.400 15.900 44.500 12.500 44.500" fill="none" stroke="#353dc0" stroke-width="0.500" stroke-linecap="round" stroke-linejoin="round"/>
<path d="M 23.500 21.500 C 24 21.500 27.900 21.400 28.500 21.500 C 29.100 21.600 28.900 22.400 29.500 22.500 C 30.100 22.600 33.900 22.400 34.500 22.500 C 35.100 22.600 35.200 23.400 35.500 23.500 C 35.800 23.600 37.200 23.400 37.500 23.500 C 37.800 23.600 38.200 24.400 38.500 24.500 C 38.800 24.600 39.900 24.100 40.500 24.500 C 41.100 24.900 44 28.100 44.500 28.500 C 45 28.900 45 28.100 45.500 28.500 C 46 28.900 49.100 31.200 49.500 32.500 C 49.900 33.800 49.600 40.500 49.500 41.500 C 49.400 42.500 48.600 42.300 48.500 42.500 C 48.400 42.700 48.600 43.300 48.500 43.500 C 48.400 43.700 47.600 44.400 47.500 44.500" fill="none" stroke="#353dc0" stroke-width="0.500" stroke-linecap="round" stroke-linejoin="round"/>
</svg>
