<svg xmlns="http://www.w3.org/2000/svg" width="64" height="64" viewBox="0 0 64 64" shape-rendering="crispEdges">
<rect x="24" y="10" width="1" height="1" fill="#ed1c24ff" />
<rect x="25" y="10" width="1" height="1" fill="#ed1c24ff" />
<rect x="26" y="10" width="1" height="1" fill="#ed1c24ff" />
<rect x="27" y="10" width="1" height="1" fill="#ed1c24ff" />
<rect x="28" y="10" width="1" height="1" fill="#ed1c24ff" />
<rect x="29" y="10" width="1" height="1" fill="#ed1c24ff" />
<rect x="30" y="10" width="1" height="1" fill="#ed1c24ff" />
<rect x="31" y="10" width="1" height="1" fill="#ed1c24ff" />
<rect x="32" y="10" width="1" height="1" fill="#ed1c24ff" />
<rect x="33" y="10" width="1" height="1" fill="#ed1c24ff" />
<rect x="34" y="10" width="1" height="1" fill="#ed1c24ff" />
<rect x="35" y="10" width="1" height="1" fill="#ed1c24ff" />
<rect x="36" y="10" width="1" height="1" fill="#ed1c24ff" />
<rect x="37" y="10" width="1" height="1" fill="#ed1c24ff" />
<rect x="38" y="10" width="1" height="1" fill="#ed1c24ff" />
<rect x="22" y="11" width="1" height="1" fill="#ed1c24ff" />
<rect x="23" y="11" width="1" height="1" fill="#ed1c24ff" />
<rect x="24" y="11" width="1" height="1" fill="#ed1c24ff" />
<rect x="25" y="11" width="1" height="1" fill="#ed1c24ff" />
<rect x="26" y="11" width="1" height="1" fill="#ed1c24ff" />
<rect x="27" y="11" width="1" height="1" fill="#ed1c24ff" />
<rect x="28" y="11" width="1" height="1" fill="#ed1c24ff" />
<rect x="29" y="11" width="1" height="1" fill="#ed1c24ff" />
<rect x="30" y="11" width="1" height="1" fill="#ed1c24ff" />
<rect x="31" y="11" width="1" height="1" fill="#ed1c24ff" />
<rect x="32" y="11" width="1" height="1" fill="#ed1c24ff" />
<rect x="33" y="11" width="1" height="1" fill="#ed1c24ff" />
<rect x="34" y="11" width="1" height="1" fill="#ed1c24ff" />
<rect x="35" y="11" width="1" height="1" fill="#ed1c24ff" />
<rect x="36" y="11" width="1" height="1" fill="#ed1c24ff" />
<rect x="37" y="11" width="1" height="1" fill="#ed1c24ff" />
<rect x="38" y="11" width="1" height="1" fill="#ed1c24ff" />
<rect x="39" y="11" width="1" height="1" fill="#ed1c24ff" />
<rect x="21" y="12" width="1" height="1" fill="#ed1c24ff" />
<rect x="22" y="12" width="1" height="1" fill="#ed1c24ff" />
<rect x="23" y="12" width="1" height="1" fill="#ed1c24ff" />
<rect x="24" y="12" width="1" height="1" fill="#ed1c24ff" />
<rect x="25" y="12" width="1" height="1" fill="#ed1c24ff" />
<rect x="26" y="12" width="1" height="1" fill="#ed1c24ff" />
<rect x="27" y="12" width="1" height="1" fill="#ed1c24ff" />
<rect x="28" y="12" width="1" height="1" fill="#ed1c24ff" />
<rect x="29" y="12" width="1" height="1" fill="#ed1c24ff" />
<rect x="30" y="12" width="1" height="1" fill="#ed1c24ff" />
<rect x="31" y="12" width="1" height="1" fill="#ed1c24ff" />
<rect x="32" y="12" width="1" height="1" fill="#ed1c24ff" />
<rect x="33" y="12" width="1" height="1" fill="#ed1c24ff" />
<rect x="34" y="12" width="1" height="1" fill="#ed1c24ff" />
<rect x="35" y="12" width="1" height="1" fill="#ed1c24ff" />
<rect x="36" y="12" width="1" height="1" fill="#ed1c24ff" />
<rect x="37" y="12" width="1" height="1" fill="#ed1c24ff" />
<rect x="38" y="12" width="1" height="1" fill="#ed1c24ff" />
<rect x="39" y="12" width="1" height="1" fill="#ed1c24ff" />
<rect x="20" y="13" width="1" height="1" fill="#ed1c24ff" />
<rect x="21" y="13" width="1" height="1" fill="#ed1c24ff" />
<rect x="22" y="13" width="1" height="1" fill="#ed1c24ff" />
<rect x="23" y="13" width="1" height="1" fill="#ed1c24ff" />
<rect x="24" y="13" width="1" height="1" fill="#ed1c24ff" />
<rect x="25" y="13" width="1" height="1" fill="#ed1c24ff" />
<rect x="26" y="13" width="1" height="1" fill="#ed1c24ff" />
<rect x="37" y="13" width="1" height="1" fill="#ed1c24ff" />
<rect x="38" y="13" width="1" height="1" fill="#ed1c24ff" />
<rect x="39" y="13" width="1" height="1" fill="#ed1c24ff" />
<rect x="40" y="13" width="1" height="1" fill="#ed1c24ff" />
<rect x="20" y="14" width="1" height="1" fill="#ed1c24ff" />
<rect x="21" y="14" width="1" height="1" fill="#ed1c24ff" />
<rect x="22" y="14" width="1" height="1" fill="#ed1c24ff" />
<rect x="23" y="14" width="1" height="1" fill="#ed1c24ff" />
<rect x="37" y="14" width="1" height="1" fill="#ed1c24ff" />
<rect x="38" y="14" width="1" height="1" fill="#ed1c24ff" />
<rect x="39" y="14" width="1" height="1" fill="#ed1c24ff" />
<rect x="40" y="14" width="1" height="1" fill="#ed1c24ff" />
<rect x="18" y="15" width="1" height="1" fill="#ed1c24ff" />
<rect x="19" y="15" width="1" height="1" fill="#ed1c24ff" />
<rect x="20" y="15" width="1" height="1" fill="#ed1c24ff" />
<rect x="21" y="15" width="1" height="1" fill="#ed1c24ff" />
<rect x="22" y="15" width="1" height="1" fill="#ed1c24ff" />
<rect x="38" y="15" width="1" height="1" fill="#ed1c24ff" />
<rect x="39" y="15" width="1" height="1" fill="#ed1c24ff" />
<rect x="40" y="15" width="1" height="1" fill="#ed1c24ff" />
<rect x="41" y="15" width="1" height="1" fill="#ed1c24ff" />
<rect x="18" y="16" width="1" height="1" fill="#ed1c24ff" />
<rect x="19" y="16" width="1" height="1" fill="#ed1c24ff" />
<rect x="20" y="16" width="1" height="1" fill="#ed1c24ff" />
<rect x="21" y="16" width="1" height="1" fill="#ed1c24ff" />
<rect x="22" y="16" width="1" height="1" fill="#ed1c24ff" />
<rect x="38" y="16" width="1" height="1" fill="#ed1c24ff" />
<rect x="39" y="16" width="1" height="1" fill="#ed1c24ff" />
<rect x="40" y="16" width="1" height="1" fill="#ed1c24ff" />
<rect x="41" y="16" width="1" height="1" fill="#ed1c24ff" />
<rect x="17" y="17" width="1" height="1" fill="#ed1c24ff" />
<rect x="18" y="17" width="1" height="1" fill="#ed1c24ff" />
<rect x="19" y="17" width="1" height="1" fill="#ed1c24ff" />
<rect x="20" y="17" width="1" height="1" fill="#ed1c24ff" />
<rect x="21" y="17" width="1" height="1" fill="#ed1c24ff" />
<rect x="39" y="17" width="1" height="1" fill="#ed1c24ff" />
<rect x="40" y="17" width="1" height="1" fill="#ed1c24ff" />
<rect x="41" y="17" width="1" height="1" fill="#ed1c24ff" />
<rect x="17" y="18" width="1" height="1" fill="#ed1c24ff" />
<rect x="18" y="18" width="1" height="1" fill="#ed1c24ff" />
<rect x="19" y="18" width="1" height="1" fill="#ed1c24ff" />
<rect x="20" y="18" width="1" height="1" fill="#ed1c24ff" />
<rect x="39" y="18" width="1" height="1" fill="#ed1c24ff" />
<rect x="40" y="18" width="1" height="1" fill="#ed1c24ff" />
<rect x="41" y="18" width="1" height="1" fill="#ed1c24ff" />
<rect x="16" y="19" width="1" height="1" fill="#ed1c24ff" />
<rect x="17" y="19" width="1" height="1" fill="#ed1c24ff" />
<rect x="18" y="19" width="1" height="1" fill="#ed1c24ff" />
<rect x="19" y="19" width="1" height="1" fill="#ed1c24ff" />
<rect x="39" y="19" width="1" height="1" fill="#ed1c24ff" />
<rect x="40" y="19" width="1" height="1" fill="#ed1c24ff" />
<rect x="41" y="19" width="1" height="1" fill="#ed1c24ff" />
<rect x="15" y="20" width="1" height="1" fill="#ed1c24ff" />
<rect x="16" y="20" width="1" height="1" fill="#ed1c24ff" />
<rect x="17" y="20" width="1" height="1" fill="#ed1c24ff" />
<rect x="18" y="20" width="1" height="1" fill="#ed1c24ff" />
<rect x="19" y="20" width="1" height="1" fill="#ed1c24ff" />
<rect x="39" y="20" width="1" height="1" fill="#ed1c24ff" />
<rect x="40" y="20" width="1" height="1" fill="#ed1c24ff" />
<rect x="41" y="20" width="1" height="1" fill="#ed1c24ff" />
<rect x="14" y="21" width="1" height="1" fill="#ed1c24ff" />
<rect x="15" y="21" width="1" height="1" fill="#ed1c24ff" />
<rect x="16" y="21" width="1" height="1" fill="#ed1c24ff" />
<rect x="17" y="21" width="1" height="1" fill="#ed1c24ff" />
<rect x="38" y="21" width="1" height="1" fill="#ed1c24ff" />
<rect x="39" y="21" width="1" height="1" fill="#ed1c24ff" />
<rect x="40" y="21" width="1" height="1" fill="#ed1c24ff" />
<rect x="41" y="21" width="1" height="1" fill="#ed1c24ff" />
<rect x="14" y="22" width="1" height="1" fill="#ed1c24ff" />
<rect x="15" y="22" width="1" height="1" fill="#ed1c24ff" />
<rect x="16" y="22" width="1" height="1" fill="#ed1c24ff" />
<rect x="17" y="22" width="1" height="1" fill="#ed1c24ff" />
<rect x="38" y="22" width="1" height="1" fill="#ed1c24ff" />
<rect x="39" y="22" width="1" height="1" fill="#ed1c24ff" />
<rect x="40" y="22" width="1" height="1" fill="#ed1c24ff" />
<rect x="41" y="22" width="1" height="1" fill="#ed1c24ff" />
<rect x="14" y="23" width="1" height="1" fill="#ed1c24ff" />
<rect x="15" y="23" width="1" height="1" fill="#ed1c24ff" />
<rect x="16" y="23" width="1" height="1" fill="#ed1c24ff" />
<rect x="38" y="23" width="1" height="1" fill="#ed1c24ff" />
<rect x="39" y="23" width="1" height="1" fill="#ed1c24ff" />
<rect x="40" y="23" width="1" height="1" fill="#ed1c24ff" />
<rect x="14" y="24" width="1" height="1" fill="#ed1c24ff" />
<rect x="15" y="24" width="1" height="1" fill="#ed1c24ff" />
<rect x="16" y="24" width="1" height="1" fill="#ed1c24ff" />
<rect x="35" y="24" width="1" height="1" fill="#ed1c24ff" />
<rect x="36" y="24" width="1" height="1" fill="#ed1c24ff" />
<rect x="37" y="24" width="1" height="1" fill="#ed1c24ff" />
<rect x="38" y="24" width="1" height="1" fill="#ed1c24ff" />
<rect x="39" y="24" width="1" height="1" fill="#ed1c24ff" />
<rect x="40" y="24" width="1" height="1" fill="#ed1c24ff" />
<rect x="34" y="25" width="1" height="1" fill="#ed1c24ff" />
<rect x="35" y="25" width="1" height="1" fill="#ed1c24ff" />
<rect x="36" y="25" width="1" height="1" fill="#ed1c24ff" />
<rect x="37" y="25" width="1" height="1" fill="#ed1c24ff" />
<rect x="38" y="25" width="1" height="1" fill="#ed1c24ff" />
<rect x="39" y="25" width="1" height="1" fill="#ed1c24ff" />
<rect x="32" y="26" width="1" height="1" fill="#ed1c24ff" />
<rect x="33" y="26" width="1" height="1" fill="#ed1c24ff" />
<rect x="34" y="26" width="1" height="1" fill="#ed1c24ff" />
<rect x="35" y="26" width="1" height="1" fill="#ed1c24ff" />
<rect x="36" y="26" width="1" height="1" fill="#ed1c24ff" />
<rect x="37" y="26" width="1" height="1" fill="#ed1c24ff" />
<rect x="38" y="26" width="1" height="1" fill="#ed1c24ff" />
<rect x="39" y="26" width="1" height="1" fill="#ed1c24ff" />
<rect x="30" y="27" width="1" height="1" fill="#ed1c24ff" />
<rect x="31" y="27" width="1" height="1" fill="#ed1c24ff" />
<rect x="32" y="27" width="1" height="1" fill="#ed1c24ff" />
<rect x="33" y="27" width="1" height="1" fill="#ed1c24ff" />
<rect x="34" y="27" width="1" height="1" fill="#ed1c24ff" />
<rect x="35" y="27" width="1" height="1" fill="#ed1c24ff" />
<rect x="36" y="27" width="1" height="1" fill="#ed1c24ff" />
<rect x="29" y="28" width="1" height="1" fill="#ed1c24ff" />
<rect x="30" y="28" width="1" height="1" fill="#ed1c24ff" />
<rect x="31" y="28" width="1" height="1" fill="#ed1c24ff" />
<rect x="32" y="28" width="1" height="1" fill="#ed1c24ff" />
<rect x="33" y="28" width="1" height="1" fill="#ed1c24ff" />
<rect x="34" y="28" width="1" height="1" fill="#ed1c24ff" />
<rect x="27" y="29" width="1" height="1" fill="#ed1c24ff" />
<rect x="28" y="29" width="1" height="1" fill="#ed1c24ff" />
<rect x="29" y="29" width="1" height="1" fill="#ed1c24ff" />
<rect x="30" y="29" width="1" height="1" fill="#ed1c24ff" />
<rect x="31" y="29" width="1" height="1" fill="#ed1c24ff" />
<rect x="32" y="29" width="1" height="1" fill="#ed1c24ff" />
<rect x="33" y="29" width="1" height="1" fill="#ed1c24ff" />
<rect x="26" y="30" width="1" height="1" fill="#ed1c24ff" />
<rect x="27" y="30" width="1" height="1" fill="#ed1c24ff" />
<rect x="28" y="30" width="1" height="1" fill="#ed1c24ff" />
<rect x="29" y="30" width="1" height="1" fill="#ed1c24ff" />
<rect x="30" y="30" width="1" height="1" fill="#ed1c24ff" />
<rect x="25" y="31" width="1" height="1" fill="#ed1c24ff" />
<rect x="26" y="31" width="1" height="1" fill="#ed1c24ff" />
<rect x="27" y="31" width="1" height="1" fill="#ed1c24ff" />
<rect x="28" y="31" width="1" height="1" fill="#ed1c24ff" />
<rect x="29" y="31" width="1" height="1" fill="#ed1c24ff" />
<rect x="30" y="31" width="1" height="1" fill="#ed1c24ff" />
<rect x="24" y="32" width="1" height="1" fill="#ed1c24ff" />
<rect x="25" y="32" width="1" height="1" fill="#ed1c24ff" />
<rect x="26" y="32" width="1" height="1" fill="#ed1c24ff" />
<rect x="27" y="32" width="1" height="1" fill="#ed1c24ff" />
<rect x="28" y="32" width="1" height="1" fill="#ed1c24ff" />
<rect x="29" y="32" width="1" height="1" fill="#ed1c24ff" />
<rect x="23" y="33" width="1" height="1" fill="#ed1c24ff" />
<rect x="24" y="33" width="1" height="1" fill="#ed1c24ff" />
<rect x="25" y="33" width="1" height="1" fill="#ed1c24ff" />
<rect x="26" y="33" width="1" height="1" fill="#ed1c24ff" />
<rect x="27" y="33" width="1" height="1" fill="#ed1c24ff" />
<rect x="28" y="33" width="1" height="1" fill="#ed1c24ff" />
<rect x="23" y="34" width="1" height="1" fill="#ed1c24ff" />
<rect x="24" y="34" width="1" height="1" fill="#ed1c24ff" />
<rect x="25" y="34" width="1" height="1" fill="#ed1c24ff" />
<rect x="26" y="34" width="1" height="1" fill="#ed1c24ff" />
<rect x="23" y="35" width="1" height="1" fill="#ed1c24ff" />
<rect x="24" y="35" width="1" height="1" fill="#ed1c24ff" />
<rect x="25" y="35" width="1" height="1" fill="#ed1c24ff" />
<rect x="26" y="35" width="1" height="1" fill="#ed1c24ff" />
<rect x="23" y="36" width="1" height="1" fill="#ed1c24ff" />
<rect x="24" y="36" width="1" height="1" fill="#ed1c24ff" />
<rect x="25" y="36" width="1" height="1" fill="#ed1c24ff" />
<rect x="23" y="37" width="1" height="1" fill="#ed1c24ff" />
<rect x="24" y="37" width="1" height="1" fill="#ed1c24ff" />
<rect x="25" y="37" width="1" height="1" fill="#ed1c24ff" />
<rect x="22" y="38" width="1" height="1" fill="#ed1c24ff" />
<rect x="23" y="38" width="1" height="1" fill="#ed1c24ff" />
<rect x="24" y="38" width="1" height="1" fill="#ed1c24ff" />
<rect x="25" y="38" width="1" height="1" fill="#ed1c24ff" />
<rect x="22" y="39" width="1" height="1" fill="#ed1c24ff" />
<rect x="23" y="39" width="1" height="1" fill="#ed1c24ff" />
<rect x="24" y="39" width="1" height="1" fill="#ed1c24ff" />
<rect x="25" y="39" width="1" height="1" fill="#ed1c24ff" />
<rect x="22" y="40" width="1" height="1" fill="#ed1c24ff" />
<rect x="23" y="40" width="1" height="1" fill="#ed1c24ff" />
<rect x="24" y="40" width="1" height="1" fill="#ed1c24ff" />
<rect x="25" y="40" width="1" height="1" fill="#ed1c24ff" />
<rect x="21" y="41" width="1" height="1" fill="#ed1c24ff" />
<rect x="22" y="41" width="1" height="1" fill="#ed1c24ff" />
<rect x="23" y="41" width="1" height="1" fill="#ed1c24ff" />
<rect x="24" y="41" width="1" height="1" fill="#ed1c24ff" />
<rect x="21" y="42" width="1" height="1" fill="#ed1c24ff" />
<rect x="22" y="42" width="1" height="1" fill="#ed1c24ff" />
<rect x="23" y="42" width="1" height="1" fill="#ed1c24ff" />
<rect x="21" y="43" width="1" height="1" fill="#ed1c24ff" />
<rect x="22" y="43" width="1" height="1" fill="#ed1c24ff" />
<rect x="23" y="43" width="1" height="1" fill="#ed1c24ff" />
<rect x="21" y="44" width="1" height="1" fill="#ed1c24ff" />
<rect x="22" y="44" width="1" height="1" fill="#ed1c24ff" />
<rect x="23" y="44" width="1" height="1" fill="#ed1c24ff" />
<rect x="20" y="45" width="1" height="1" fill="#ed1c24ff" />
<rect x="21" y="45" width="1" height="1" fill="#ed1c24ff" />
<rect x="22" y="45" width="1" height="1" fill="#ed1c24ff" />
<rect x="23" y="45" width="1" height="1" fill="#ed1c24ff" />
<rect x="20" y="46" width="1" height="1" fill="#ed1c24ff" />
<rect x="21" y="46" width="1" height="1" fill="#ed1c24ff" />
<rect x="22" y="46" width="1" height="1" fill="#ed1c24ff" />
<rect x="23" y="46" width="1" height="1" fill="#ed1c24ff" />
<rect x="20" y="47" width="1" height="1" fill="#ed1c24ff" />
<rect x="21" y="47" width="1" height="1" fill="#ed1c24ff" />
<rect x="22" y="47" width="1" height="1" fill="#ed1c24ff" />
<rect x="23" y="47" width="1" height="1" fill="#ed1c24ff" />
<rect x="20" y="48" width="1" height="1" fill="#ed1c24ff" />
<rect x="21" y="48" width="1" height="1" fill="#ed1c24ff" />
<rect x="22" y="48" width="1" height="1" fill="#ed1c24ff" />
<rect x="19" y="49" width="1" height="1" fill="#ed1c24ff" />
<rect x="20" y="49" width="1" height="1" fill="#ed1c24ff" />
<rect x="21" y="49" width="1" height="1" fill="#ed1c24ff" />
<rect x="22" y="49" width="1" height="1" fill="#ed1c24ff" />
<rect x="19" y="50" width="1" height="1" fill="#ed1c24ff" />
<rect x="20" y="50" width="1" height="1" fill="#ed1c24ff" />
<rect x="21" y="50" width="1" height="1" fill="#ed1c24ff" />
<rect x="22" y="50" width="1" height="1" fill="#ed1c24ff" />
<rect x="19" y="51" width="1" height="1" fill="#ed1c24ff" />
<rect x="20" y="51" width="1" height="1" fill="#ed1c24ff" />
<rect x="21" y="51" width="1" height="1" fill="#ed1c24ff" />
<rect x="18" y="52" width="1" height="1" fill="#ed1c24ff" />
<rect x="19" y="52" width="1" height="1" fill="#ed1c24ff" />
<rect x="20" y="52" width="1" height="1" fill="#ed1c24ff" />
<rect x="21" y="52" width="1" height="1" fill="#ed1c24ff" />
<rect x="18" y="53" width="1" height="1" fill="#ed1c24ff" />
<rect x="19" y="53" width="1" height="1" fill="#ed1c24ff" />
<rect x="20" y="53" width="1" height="1" fill="#ed1c24ff" />
<rect x="21" y="53" width="1" height="1" fill="#ed1c24ff" />
<rect x="22" y="53" width="1" height="1" fill="#ed1c24ff" />
<rect x="23" y="53" width="1" height="1" fill="#ed1c24ff" />
<rect x="24" y="53" width="1" height="1" fill="#ed1c24ff" />
<rect x="25" y="53" width="1" height="1" fill="#ed1c24ff" />
<rect x="26" y="53" width="1" height="1" fill="#ed1c24ff" />
<rect x="27" y="53" width="1" height="1" fill="#ed1c24ff" />
<rect x="28" y="53" width="1" height="1" fill="#ed1c24ff" />
<rect x="29" y="53" width="1" height="1" fill="#ed1c24ff" />
<rect x="30" y="53" width="1" height="1" fill="#ed1c24ff" />
<rect x="31" y="53" width="1" height="1" fill="#ed1c24ff" />
<rect x="32" y="53" width="1" height="1" fill="#ed1c24ff" />
<rect x="33" y="53" width="1" height="1" fill="#ed1c24ff" />
<rect x="34" y="53" width="1" height="1" fill="#ed1c24ff" />
<rect x="35" y="53" width="1" height="1" fill="#ed1c24ff" />
<rect x="36" y="53" width="1" height="1" fill="#ed1c24ff" />
<rect x="37" y="53" width="1" height="1" fill="#ed1c24ff" />
<rect x="38" y="53" width="1" height="1" fill="#ed1c24ff" />
<rect x="39" y="53" width="1" height="1" fill="#ed1c24ff" />
<rect x="40" y="53" width="1" height="1" fill="#ed1c24ff" />
<rect x="41" y="53" width="1" height="1" fill="#ed1c24ff" />
<rect x="42" y="53" width="1" height="1" fill="#ed1c24ff" />
<rect x="43" y="53" width="1" height="1" fill="#ed1c24ff" />
<rect x="44" y="53" width="1" height="1" fill="#ed1c24ff" />
<rect x="45" y="53" width="1" height="1" fill="#ed1c24ff" />
<rect x="46" y="53" width="1" height="1" fill="#ed1c24ff" />
<rect x="47" y="53" width="1" height="1" fill="#ed1c24ff" />
<rect x="48" y="53" width="1" height="1" fill="#ed1c24ff" />
<rect x="18" y="54" width="1" height="1" fill="#ed1c24ff" />
<rect x="19" y="54" width="1" height="1" fill="#ed1c24ff" />
<rect x="20" y="54" width="1" height="1" fill="#ed1c24ff" />
<rect x="21" y="54" width="1" height="1" fill="#ed1c24ff" />
<rect x="22" y="54" width="1" height="1" fill="#ed1c24ff" />
<rect x="23" y="54" width="1" height="1" fill="#ed1c24ff" />
<rect x="24" y="54" width="1" height="1" fill="#ed1c24ff" />
<rect x="25" y="54" width="1" height="1" fill="#ed1c24ff" />
<rect x="26" y="54" width="1" height="1" fill="#ed1c24ff" />
<rect x="27" y="54" width="1" height="1" fill="#ed1c24ff" />
<rect x="28" y="54" width="1" height="1" fill="#ed1c24ff" />
<rect x="29" y="54" width="1" height="1" fill="#ed1c24ff" />
<rect x="30" y="54" width="1" height="1" fill="#ed1c24ff" />
<rect x="31" y="54" width="1" height="1" fill="#ed1c24ff" />
<rect x="32" y="54" width="1" height="1" fill="#ed1c24ff" />
<rect x="33" y="54" width="1" height="1" fill="#ed1c24ff" />
<rect x="34" y="54" width="1" height="1" fill="#ed1c24ff" />
<rect x="35" y="54" width="1" height="1" fill="#ed1c24ff" />
<rect x="36" y="54" width="1" height="1" fill="#ed1c24ff" />
<rect x="37" y="54" width="1" height="1" fill="#ed1c24ff" />
<rect x="38" y="54" width="1" height="1" fill="#ed1c24ff" />
<rect x="39" y="54" width="1" height="1" fill="#ed1c24ff" />
<rect x="40" y="54" width="1" height="1" fill="#ed1c24ff" />
<rect x="41" y="54" width="1" height="1" fill="#ed1c24ff" />
<rect x="42" y="54" width="1" height="1" fill="#ed1c24ff" />
<rect x="43" y="54" width="1" height="1" fill="#ed1c24ff" />
<rect x="44" y="54" width="1" height="1" fill="#ed1c24ff" />
<rect x="45" y="54" width="1" height="1" fill="#ed1c24ff" />
<rect x="46" y="54" width="1" height="1" fill="#ed1c24ff" />
<rect x="47" y="54" width="1" height="1" fill="#ed1c24ff" />
<rect x="48" y="54" width="1" height="1" fill="#ed1c24ff" />
<rect x="18" y="55" width="1" height="1" fill="#ed1c24ff" />
<rect x="19" y="55" width="1" height="1" fill="#ed1c24ff" />
<rect x="20" y="55" width="1" height="1" fill="#ed1c24ff" />
<rect x="21" y="55" width="1" height="1" fill="#ed1c24ff" />
<rect x="22" y="55" width="1" height="1" fill="#ed1c24ff" />
<rect x="23" y="55" width="1" height="1" fill="#ed1c24ff" />
<rect x="24" y="55" width="1" height="1" fill="#ed1c24ff" />
<rect x="25" y="55" width="1" height="1" fill="#ed1c24ff" />
<rect x="26" y="55" width="1" height="1" fill="#ed1c24ff" />
<rect x="27" y="55" width="1" height="1" fill="#ed1c24ff" />
<rect x="28" y="55" width="1" height="1" fill="#ed1c24ff" />
<rect x="29" y="55" width="1" height="1" fill="#ed1c24ff" />
<rect x="30" y="55" width="1" height="1" fill="#ed1c24ff" />
<rect x="31" y="55" width="1" height="1" fill="#ed1c24ff" />
<rect x="32" y="55" width="1" height="1" fill="#ed1c24ff" />
<rect x="33" y="55" width="1" height="1" fill="#ed1c24ff" />
<rect x="34" y="55" width="1" height="1" fill="#ed1c24ff" />
<rect x="35" y="55" width="1" height="1" fill="#ed1c24ff" />
<rect x="36" y="55" width="1" height="1" fill="#ed1c24ff" />
<rect x="37" y="55" width="1" height="1" fill="#ed1c24ff" />
<rect x="38" y="55" width="1" height="1" fill="#ed1c24ff" />
<rect x="39" y="55" width="1" height="1" fill="#ed1c24ff" />
<rect x="40" y="55" width="1" height="1" fill="#ed1c24ff" />
<rect x="41" y="55" width="1" height="1" fill="#ed1c24ff" />
<rect x="42" y="55" width="1" height="1" fill="#ed1c24ff" />
<rect x="43" y="55" width="1" height="1" fill="#ed1c24ff" />
<rect x="44" y="55" width="1" height="1" fill="#ed1c24ff" />
<rect x="45" y="55" width="1" height="1" fill="#ed1c24ff" />
<rect x="46" y="55" width="1" height="1" fill="#ed1c24ff" />
<rect x="47" y="55" width="1" height="1" fill="#ed1c24ff" />
<rect x="48" y="55" width="1" height="1" fill="#ed1c24ff" />
</svg>
