<svg xmlns="http://www.w3.org/2000/svg" width="64" height="64" viewBox="0 0 64 64" shape-rendering="crispEdges">
<defs>
  <radialGradient id="bluePen" cx="0.5" cy="0.5" r="0.5">
    <stop offset="0%" stop-color="#0033cc" stop-opacity="1"/>
    <stop offset="100%" stop-color="#0033cc" stop-opacity="0.2"/>
  </radialGradient>
</defs>
<rect x="20" y="4" width="1" height="1" fill="url(#bluePen)" />
<rect x="21" y="4" width="1" height="1" fill="url(#bluePen)" />
<rect x="22" y="4" width="1" height="1" fill="url(#bluePen)" />
<rect x="23" y="4" width="1" height="1" fill="url(#bluePen)" />
<rect x="24" y="4" width="1" height="1" fill="url(#bluePen)" />
<rect x="25" y="4" width="1" height="1" fill="url(#bluePen)" />
<rect x="26" y="4" width="1" height="1" fill="url(#bluePen)" />
<rect x="27" y="4" width="1" height="1" fill="url(#bluePen)" />
<rect x="28" y="4" width="1" height="1" fill="url(#bluePen)" />
<rect x="38" y="4" width="1" height="1" fill="url(#bluePen)" />
<rect x="39" y="4" width="1" height="1" fill="url(#bluePen)" />
<rect x="40" y="4" width="1" height="1" fill="url(#bluePen)" />
<rect x="41" y="4" width="1" height="1" fill="url(#bluePen)" />
<rect x="42" y="4" width="1" height="1" fill="url(#bluePen)" />
<rect x="43" y="4" width="1" height="1" fill="url(#bluePen)" />
<rect x="19" y="5" width="1" height="1" fill="url(#bluePen)" />
<rect x="29" y="5" width="1" height="1" fill="url(#bluePen)" />
<rect x="37" y="5" width="1" height="1" fill="url(#bluePen)" />
<rect x="38" y="5" width="1" height="1" fill="url(#bluePen)" />
<rect x="43" y="5" width="1" height="1" fill="url(#bluePen)" />
<rect x="19" y="6" width="1" height="1" fill="url(#bluePen)" />
<rect x="29" y="6" width="1" height="1" fill="url(#bluePen)" />
<rect x="36" y="6" width="1" height="1" fill="url(#bluePen)" />
<rect x="43" y="6" width="1" height="1" fill="url(#bluePen)" />
<rect x="44" y="6" width="1" height="1" fill="url(#bluePen)" />
<rect x="19" y="7" width="1" height="1" fill="url(#bluePen)" />
<rect x="29" y="7" width="1" height="1" fill="url(#bluePen)" />
<rect x="30" y="7" width="1" height="1" fill="url(#bluePen)" />
<rect x="31" y="7" width="1" height="1" fill="url(#bluePen)" />
<rect x="32" y="7" width="1" height="1" fill="url(#bluePen)" />
<rect x="33" y="7" width="1" height="1" fill="url(#bluePen)" />
<rect x="34" y="7" width="1" height="1" fill="url(#bluePen)" />
<rect x="35" y="7" width="1" height="1" fill="url(#bluePen)" />
<rect x="36" y="7" width="1" height="1" fill="url(#bluePen)" />
<rect x="37" y="7" width="1" height="1" fill="url(#bluePen)" />
<rect x="44" y="7" width="1" height="1" fill="url(#bluePen)" />
<rect x="19" y="8" width="1" height="1" fill="url(#bluePen)" />
<rect x="24" y="8" width="1" height="1" fill="url(#bluePen)" />
<rect x="25" y="8" width="1" height="1" fill="url(#bluePen)" />
<rect x="26" y="8" width="1" height="1" fill="url(#bluePen)" />
<rect x="27" y="8" width="1" height="1" fill="url(#bluePen)" />
<rect x="28" y="8" width="1" height="1" fill="url(#bluePen)" />
<rect x="29" y="8" width="1" height="1" fill="url(#bluePen)" />
<rect x="37" y="8" width="1" height="1" fill="url(#bluePen)" />
<rect x="38" y="8" width="1" height="1" fill="url(#bluePen)" />
<rect x="44" y="8" width="1" height="1" fill="url(#bluePen)" />
<rect x="19" y="9" width="1" height="1" fill="url(#bluePen)" />
<rect x="23" y="9" width="1" height="1" fill="url(#bluePen)" />
<rect x="24" y="9" width="1" height="1" fill="url(#bluePen)" />
<rect x="38" y="9" width="1" height="1" fill="url(#bluePen)" />
<rect x="44" y="9" width="1" height="1" fill="url(#bluePen)" />
<rect x="19" y="10" width="1" height="1" fill="url(#bluePen)" />
<rect x="22" y="10" width="1" height="1" fill="url(#bluePen)" />
<rect x="23" y="10" width="1" height="1" fill="url(#bluePen)" />
<rect x="39" y="10" width="1" height="1" fill="url(#bluePen)" />
<rect x="44" y="10" width="1" height="1" fill="url(#bluePen)" />
<rect x="19" y="11" width="1" height="1" fill="url(#bluePen)" />
<rect x="22" y="11" width="1" height="1" fill="url(#bluePen)" />
<rect x="39" y="11" width="1" height="1" fill="url(#bluePen)" />
<rect x="44" y="11" width="1" height="1" fill="url(#bluePen)" />
<rect x="19" y="12" width="1" height="1" fill="url(#bluePen)" />
<rect x="21" y="12" width="1" height="1" fill="url(#bluePen)" />
<rect x="40" y="12" width="1" height="1" fill="url(#bluePen)" />
<rect x="44" y="12" width="1" height="1" fill="url(#bluePen)" />
<rect x="19" y="13" width="1" height="1" fill="url(#bluePen)" />
<rect x="20" y="13" width="1" height="1" fill="url(#bluePen)" />
<rect x="21" y="13" width="1" height="1" fill="url(#bluePen)" />
<rect x="40" y="13" width="1" height="1" fill="url(#bluePen)" />
<rect x="43" y="13" width="1" height="1" fill="url(#bluePen)" />
<rect x="44" y="13" width="1" height="1" fill="url(#bluePen)" />
<rect x="20" y="14" width="1" height="1" fill="url(#bluePen)" />
<rect x="40" y="14" width="1" height="1" fill="url(#bluePen)" />
<rect x="41" y="14" width="1" height="1" fill="url(#bluePen)" />
<rect x="43" y="14" width="1" height="1" fill="url(#bluePen)" />
<rect x="19" y="15" width="1" height="1" fill="url(#bluePen)" />
<rect x="41" y="15" width="1" height="1" fill="url(#bluePen)" />
<rect x="42" y="15" width="1" height="1" fill="url(#bluePen)" />
<rect x="19" y="16" width="1" height="1" fill="url(#bluePen)" />
<rect x="34" y="16" width="1" height="1" fill="url(#bluePen)" />
<rect x="41" y="16" width="1" height="1" fill="url(#bluePen)" />
<rect x="18" y="17" width="1" height="1" fill="url(#bluePen)" />
<rect x="22" y="17" width="1" height="1" fill="url(#bluePen)" />
<rect x="34" y="17" width="1" height="1" fill="url(#bluePen)" />
<rect x="35" y="17" width="1" height="1" fill="url(#bluePen)" />
<rect x="36" y="17" width="1" height="1" fill="url(#bluePen)" />
<rect x="37" y="17" width="1" height="1" fill="url(#bluePen)" />
<rect x="42" y="17" width="1" height="1" fill="url(#bluePen)" />
<rect x="18" y="18" width="1" height="1" fill="url(#bluePen)" />
<rect x="22" y="18" width="1" height="1" fill="url(#bluePen)" />
<rect x="23" y="18" width="1" height="1" fill="url(#bluePen)" />
<rect x="42" y="18" width="1" height="1" fill="url(#bluePen)" />
<rect x="17" y="19" width="1" height="1" fill="url(#bluePen)" />
<rect x="18" y="19" width="1" height="1" fill="url(#bluePen)" />
<rect x="42" y="19" width="1" height="1" fill="url(#bluePen)" />
<rect x="43" y="19" width="1" height="1" fill="url(#bluePen)" />
<rect x="17" y="20" width="1" height="1" fill="url(#bluePen)" />
<rect x="43" y="20" width="1" height="1" fill="url(#bluePen)" />
<rect x="16" y="21" width="1" height="1" fill="url(#bluePen)" />
<rect x="43" y="21" width="1" height="1" fill="url(#bluePen)" />
<rect x="16" y="22" width="1" height="1" fill="url(#bluePen)" />
<rect x="44" y="22" width="1" height="1" fill="url(#bluePen)" />
<rect x="16" y="23" width="1" height="1" fill="url(#bluePen)" />
<rect x="44" y="23" width="1" height="1" fill="url(#bluePen)" />
<rect x="16" y="24" width="1" height="1" fill="url(#bluePen)" />
<rect x="44" y="24" width="1" height="1" fill="url(#bluePen)" />
<rect x="15" y="25" width="1" height="1" fill="url(#bluePen)" />
<rect x="44" y="25" width="1" height="1" fill="url(#bluePen)" />
<rect x="15" y="26" width="1" height="1" fill="url(#bluePen)" />
<rect x="45" y="26" width="1" height="1" fill="url(#bluePen)" />
<rect x="15" y="27" width="1" height="1" fill="url(#bluePen)" />
<rect x="45" y="27" width="1" height="1" fill="url(#bluePen)" />
<rect x="15" y="28" width="1" height="1" fill="url(#bluePen)" />
<rect x="45" y="28" width="1" height="1" fill="url(#bluePen)" />
<rect x="14" y="29" width="1" height="1" fill="url(#bluePen)" />
<rect x="15" y="29" width="1" height="1" fill="url(#bluePen)" />
<rect x="25" y="29" width="1" height="1" fill="url(#bluePen)" />
<rect x="45" y="29" width="1" height="1" fill="url(#bluePen)" />
<rect x="14" y="30" width="1" height="1" fill="url(#bluePen)" />
<rect x="15" y="30" width="1" height="1" fill="url(#bluePen)" />
<rect x="25" y="30" width="1" height="1" fill="url(#bluePen)" />
<rect x="26" y="30" width="1" height="1" fill="url(#bluePen)" />
<rect x="39" y="30" width="1" height="1" fill="url(#bluePen)" />
<rect x="45" y="30" width="1" height="1" fill="url(#bluePen)" />
<rect x="46" y="30" width="1" height="1" fill="url(#bluePen)" />
<rect x="47" y="30" width="1" height="1" fill="url(#bluePen)" />
<rect x="48" y="30" width="1" height="1" fill="url(#bluePen)" />
<rect x="49" y="30" width="1" height="1" fill="url(#bluePen)" />
<rect x="50" y="30" width="1" height="1" fill="url(#bluePen)" />
<rect x="6" y="31" width="1" height="1" fill="url(#bluePen)" />
<rect x="7" y="31" width="1" height="1" fill="url(#bluePen)" />
<rect x="8" y="31" width="1" height="1" fill="url(#bluePen)" />
<rect x="9" y="31" width="1" height="1" fill="url(#bluePen)" />
<rect x="10" y="31" width="1" height="1" fill="url(#bluePen)" />
<rect x="11" y="31" width="1" height="1" fill="url(#bluePen)" />
<rect x="12" y="31" width="1" height="1" fill="url(#bluePen)" />
<rect x="14" y="31" width="1" height="1" fill="url(#bluePen)" />
<rect x="15" y="31" width="1" height="1" fill="url(#bluePen)" />
<rect x="27" y="31" width="1" height="1" fill="url(#bluePen)" />
<rect x="28" y="31" width="1" height="1" fill="url(#bluePen)" />
<rect x="38" y="31" width="1" height="1" fill="url(#bluePen)" />
<rect x="39" y="31" width="1" height="1" fill="url(#bluePen)" />
<rect x="44" y="31" width="1" height="1" fill="url(#bluePen)" />
<rect x="45" y="31" width="1" height="1" fill="url(#bluePen)" />
<rect x="51" y="31" width="1" height="1" fill="url(#bluePen)" />
<rect x="5" y="32" width="1" height="1" fill="url(#bluePen)" />
<rect x="6" y="32" width="1" height="1" fill="url(#bluePen)" />
<rect x="14" y="32" width="1" height="1" fill="url(#bluePen)" />
<rect x="15" y="32" width="1" height="1" fill="url(#bluePen)" />
<rect x="29" y="32" width="1" height="1" fill="url(#bluePen)" />
<rect x="30" y="32" width="1" height="1" fill="url(#bluePen)" />
<rect x="31" y="32" width="1" height="1" fill="url(#bluePen)" />
<rect x="32" y="32" width="1" height="1" fill="url(#bluePen)" />
<rect x="33" y="32" width="1" height="1" fill="url(#bluePen)" />
<rect x="34" y="32" width="1" height="1" fill="url(#bluePen)" />
<rect x="35" y="32" width="1" height="1" fill="url(#bluePen)" />
<rect x="36" y="32" width="1" height="1" fill="url(#bluePen)" />
<rect x="37" y="32" width="1" height="1" fill="url(#bluePen)" />
<rect x="38" y="32" width="1" height="1" fill="url(#bluePen)" />
<rect x="44" y="32" width="1" height="1" fill="url(#bluePen)" />
<rect x="45" y="32" width="1" height="1" fill="url(#bluePen)" />
<rect x="51" y="32" width="1" height="1" fill="url(#bluePen)" />
<rect x="52" y="32" width="1" height="1" fill="url(#bluePen)" />
<rect x="6" y="33" width="1" height="1" fill="url(#bluePen)" />
<rect x="7" y="33" width="1" height="1" fill="url(#bluePen)" />
<rect x="15" y="33" width="1" height="1" fill="url(#bluePen)" />
<rect x="45" y="33" width="1" height="1" fill="url(#bluePen)" />
<rect x="52" y="33" width="1" height="1" fill="url(#bluePen)" />
<rect x="7" y="34" width="1" height="1" fill="url(#bluePen)" />
<rect x="8" y="34" width="1" height="1" fill="url(#bluePen)" />
<rect x="15" y="34" width="1" height="1" fill="url(#bluePen)" />
<rect x="45" y="34" width="1" height="1" fill="url(#bluePen)" />
<rect x="46" y="34" width="1" height="1" fill="url(#bluePen)" />
<rect x="52" y="34" width="1" height="1" fill="url(#bluePen)" />
<rect x="8" y="35" width="1" height="1" fill="url(#bluePen)" />
<rect x="9" y="35" width="1" height="1" fill="url(#bluePen)" />
<rect x="15" y="35" width="1" height="1" fill="url(#bluePen)" />
<rect x="16" y="35" width="1" height="1" fill="url(#bluePen)" />
<rect x="44" y="35" width="1" height="1" fill="url(#bluePen)" />
<rect x="45" y="35" width="1" height="1" fill="url(#bluePen)" />
<rect x="46" y="35" width="1" height="1" fill="url(#bluePen)" />
<rect x="52" y="35" width="1" height="1" fill="url(#bluePen)" />
<rect x="9" y="36" width="1" height="1" fill="url(#bluePen)" />
<rect x="15" y="36" width="1" height="1" fill="url(#bluePen)" />
<rect x="16" y="36" width="1" height="1" fill="url(#bluePen)" />
<rect x="17" y="36" width="1" height="1" fill="url(#bluePen)" />
<rect x="44" y="36" width="1" height="1" fill="url(#bluePen)" />
<rect x="46" y="36" width="1" height="1" fill="url(#bluePen)" />
<rect x="48" y="36" width="1" height="1" fill="url(#bluePen)" />
<rect x="49" y="36" width="1" height="1" fill="url(#bluePen)" />
<rect x="50" y="36" width="1" height="1" fill="url(#bluePen)" />
<rect x="51" y="36" width="1" height="1" fill="url(#bluePen)" />
<rect x="52" y="36" width="1" height="1" fill="url(#bluePen)" />
<rect x="10" y="37" width="1" height="1" fill="url(#bluePen)" />
<rect x="15" y="37" width="1" height="1" fill="url(#bluePen)" />
<rect x="18" y="37" width="1" height="1" fill="url(#bluePen)" />
<rect x="44" y="37" width="1" height="1" fill="url(#bluePen)" />
<rect x="46" y="37" width="1" height="1" fill="url(#bluePen)" />
<rect x="11" y="38" width="1" height="1" fill="url(#bluePen)" />
<rect x="15" y="38" width="1" height="1" fill="url(#bluePen)" />
<rect x="18" y="38" width="1" height="1" fill="url(#bluePen)" />
<rect x="19" y="38" width="1" height="1" fill="url(#bluePen)" />
<rect x="43" y="38" width="1" height="1" fill="url(#bluePen)" />
<rect x="46" y="38" width="1" height="1" fill="url(#bluePen)" />
<rect x="11" y="39" width="1" height="1" fill="url(#bluePen)" />
<rect x="12" y="39" width="1" height="1" fill="url(#bluePen)" />
<rect x="15" y="39" width="1" height="1" fill="url(#bluePen)" />
<rect x="20" y="39" width="1" height="1" fill="url(#bluePen)" />
<rect x="21" y="39" width="1" height="1" fill="url(#bluePen)" />
<rect x="42" y="39" width="1" height="1" fill="url(#bluePen)" />
<rect x="43" y="39" width="1" height="1" fill="url(#bluePen)" />
<rect x="46" y="39" width="1" height="1" fill="url(#bluePen)" />
<rect x="15" y="40" width="1" height="1" fill="url(#bluePen)" />
<rect x="21" y="40" width="1" height="1" fill="url(#bluePen)" />
<rect x="22" y="40" width="1" height="1" fill="url(#bluePen)" />
<rect x="23" y="40" width="1" height="1" fill="url(#bluePen)" />
<rect x="41" y="40" width="1" height="1" fill="url(#bluePen)" />
<rect x="42" y="40" width="1" height="1" fill="url(#bluePen)" />
<rect x="46" y="40" width="1" height="1" fill="url(#bluePen)" />
<rect x="16" y="41" width="1" height="1" fill="url(#bluePen)" />
<rect x="24" y="41" width="1" height="1" fill="url(#bluePen)" />
<rect x="25" y="41" width="1" height="1" fill="url(#bluePen)" />
<rect x="26" y="41" width="1" height="1" fill="url(#bluePen)" />
<rect x="40" y="41" width="1" height="1" fill="url(#bluePen)" />
<rect x="41" y="41" width="1" height="1" fill="url(#bluePen)" />
<rect x="46" y="41" width="1" height="1" fill="url(#bluePen)" />
<rect x="16" y="42" width="1" height="1" fill="url(#bluePen)" />
<rect x="26" y="42" width="1" height="1" fill="url(#bluePen)" />
<rect x="27" y="42" width="1" height="1" fill="url(#bluePen)" />
<rect x="28" y="42" width="1" height="1" fill="url(#bluePen)" />
<rect x="38" y="42" width="1" height="1" fill="url(#bluePen)" />
<rect x="39" y="42" width="1" height="1" fill="url(#bluePen)" />
<rect x="40" y="42" width="1" height="1" fill="url(#bluePen)" />
<rect x="46" y="42" width="1" height="1" fill="url(#bluePen)" />
<rect x="17" y="43" width="1" height="1" fill="url(#bluePen)" />
<rect x="28" y="43" width="1" height="1" fill="url(#bluePen)" />
<rect x="29" y="43" width="1" height="1" fill="url(#bluePen)" />
<rect x="30" y="43" width="1" height="1" fill="url(#bluePen)" />
<rect x="31" y="43" width="1" height="1" fill="url(#bluePen)" />
<rect x="32" y="43" width="1" height="1" fill="url(#bluePen)" />
<rect x="33" y="43" width="1" height="1" fill="url(#bluePen)" />
<rect x="34" y="43" width="1" height="1" fill="url(#bluePen)" />
<rect x="35" y="43" width="1" height="1" fill="url(#bluePen)" />
<rect x="36" y="43" width="1" height="1" fill="url(#bluePen)" />
<rect x="37" y="43" width="1" height="1" fill="url(#bluePen)" />
<rect x="46" y="43" width="1" height="1" fill="url(#bluePen)" />
<rect x="17" y="44" width="1" height="1" fill="url(#bluePen)" />
<rect x="46" y="44" width="1" height="1" fill="url(#bluePen)" />
<rect x="17" y="45" width="1" height="1" fill="url(#bluePen)" />
<rect x="18" y="45" width="1" height="1" fill="url(#bluePen)" />
<rect x="46" y="45" width="1" height="1" fill="url(#bluePen)" />
<rect x="18" y="46" width="1" height="1" fill="url(#bluePen)" />
<rect x="46" y="46" width="1" height="1" fill="url(#bluePen)" />
<rect x="18" y="47" width="1" height="1" fill="url(#bluePen)" />
<rect x="19" y="47" width="1" height="1" fill="url(#bluePen)" />
<rect x="46" y="47" width="1" height="1" fill="url(#bluePen)" />
<rect x="19" y="48" width="1" height="1" fill="url(#bluePen)" />
<rect x="46" y="48" width="1" height="1" fill="url(#bluePen)" />
<rect x="47" y="48" width="1" height="1" fill="url(#bluePen)" />
<rect x="48" y="48" width="1" height="1" fill="url(#bluePen)" />
<rect x="49" y="48" width="1" height="1" fill="url(#bluePen)" />
<rect x="50" y="48" width="1" height="1" fill="url(#bluePen)" />
<rect x="51" y="48" width="1" height="1" fill="url(#bluePen)" />
<rect x="52" y="48" width="1" height="1" fill="url(#bluePen)" />
<rect x="53" y="48" width="1" height="1" fill="url(#bluePen)" />
<rect x="17" y="49" width="1" height="1" fill="url(#bluePen)" />
<rect x="18" y="49" width="1" height="1" fill="url(#bluePen)" />
<rect x="19" y="49" width="1" height="1" fill="url(#bluePen)" />
<rect x="46" y="49" width="1" height="1" fill="url(#bluePen)" />
<rect x="53" y="49" width="1" height="1" fill="url(#bluePen)" />
<rect x="54" y="49" width="1" height="1" fill="url(#bluePen)" />
<rect x="14" y="50" width="1" height="1" fill="url(#bluePen)" />
<rect x="15" y="50" width="1" height="1" fill="url(#bluePen)" />
<rect x="16" y="50" width="1" height="1" fill="url(#bluePen)" />
<rect x="17" y="50" width="1" height="1" fill="url(#bluePen)" />
<rect x="20" y="50" width="1" height="1" fill="url(#bluePen)" />
<rect x="45" y="50" width="1" height="1" fill="url(#bluePen)" />
<rect x="54" y="50" width="1" height="1" fill="url(#bluePen)" />
<rect x="13" y="51" width="1" height="1" fill="url(#bluePen)" />
<rect x="14" y="51" width="1" height="1" fill="url(#bluePen)" />
<rect x="20" y="51" width="1" height="1" fill="url(#bluePen)" />
<rect x="21" y="51" width="1" height="1" fill="url(#bluePen)" />
<rect x="45" y="51" width="1" height="1" fill="url(#bluePen)" />
<rect x="54" y="51" width="1" height="1" fill="url(#bluePen)" />
<rect x="12" y="52" width="1" height="1" fill="url(#bluePen)" />
<rect x="13" y="52" width="1" height="1" fill="url(#bluePen)" />
<rect x="21" y="52" width="1" height="1" fill="url(#bluePen)" />
<rect x="22" y="52" width="1" height="1" fill="url(#bluePen)" />
<rect x="45" y="52" width="1" height="1" fill="url(#bluePen)" />
<rect x="54" y="52" width="1" height="1" fill="url(#bluePen)" />
<rect x="12" y="53" width="1" height="1" fill="url(#bluePen)" />
<rect x="22" y="53" width="1" height="1" fill="url(#bluePen)" />
<rect x="23" y="53" width="1" height="1" fill="url(#bluePen)" />
<rect x="43" y="53" width="1" height="1" fill="url(#bluePen)" />
<rect x="44" y="53" width="1" height="1" fill="url(#bluePen)" />
<rect x="45" y="53" width="1" height="1" fill="url(#bluePen)" />
<rect x="54" y="53" width="1" height="1" fill="url(#bluePen)" />
<rect x="12" y="54" width="1" height="1" fill="url(#bluePen)" />
<rect x="24" y="54" width="1" height="1" fill="url(#bluePen)" />
<rect x="44" y="54" width="1" height="1" fill="url(#bluePen)" />
<rect x="45" y="54" width="1" height="1" fill="url(#bluePen)" />
<rect x="46" y="54" width="1" height="1" fill="url(#bluePen)" />
<rect x="47" y="54" width="1" height="1" fill="url(#bluePen)" />
<rect x="48" y="54" width="1" height="1" fill="url(#bluePen)" />
<rect x="49" y="54" width="1" height="1" fill="url(#bluePen)" />
<rect x="50" y="54" width="1" height="1" fill="url(#bluePen)" />
<rect x="51" y="54" width="1" height="1" fill="url(#bluePen)" />
<rect x="52" y="54" width="1" height="1" fill="url(#bluePen)" />
<rect x="53" y="54" width="1" height="1" fill="url(#bluePen)" />
<rect x="54" y="54" width="1" height="1" fill="url(#bluePen)" />
<rect x="12" y="55" width="1" height="1" fill="url(#bluePen)" />
<rect x="23" y="55" width="1" height="1" fill="url(#bluePen)" />
<rect x="25" y="55" width="1" height="1" fill="url(#bluePen)" />
<rect x="26" y="55" width="1" height="1" fill="url(#bluePen)" />
<rect x="44" y="55" width="1" height="1" fill="url(#bluePen)" />
<rect x="12" y="56" width="1" height="1" fill="url(#bluePen)" />
<rect x="13" y="56" width="1" height="1" fill="url(#bluePen)" />
<rect x="14" y="56" width="1" height="1" fill="url(#bluePen)" />
<rect x="15" y="56" width="1" height="1" fill="url(#bluePen)" />
<rect x="16" y="56" width="1" height="1" fill="url(#bluePen)" />
<rect x="22" y="56" width="1" height="1" fill="url(#bluePen)" />
<rect x="23" y="56" width="1" height="1" fill="url(#bluePen)" />
<rect x="27" y="56" width="1" height="1" fill="url(#bluePen)" />
<rect x="28" y="56" width="1" height="1" fill="url(#bluePen)" />
<rect x="43" y="56" width="1" height="1" fill="url(#bluePen)" />
<rect x="44" y="56" width="1" height="1" fill="url(#bluePen)" />
<rect x="17" y="57" width="1" height="1" fill="url(#bluePen)" />
<rect x="18" y="57" width="1" height="1" fill="url(#bluePen)" />
<rect x="19" y="57" width="1" height="1" fill="url(#bluePen)" />
<rect x="20" y="57" width="1" height="1" fill="url(#bluePen)" />
<rect x="21" y="57" width="1" height="1" fill="url(#bluePen)" />
<rect x="22" y="57" width="1" height="1" fill="url(#bluePen)" />
<rect x="29" y="57" width="1" height="1" fill="url(#bluePen)" />
<rect x="30" y="57" width="1" height="1" fill="url(#bluePen)" />
<rect x="31" y="57" width="1" height="1" fill="url(#bluePen)" />
<rect x="42" y="57" width="1" height="1" fill="url(#bluePen)" />
<rect x="43" y="57" width="1" height="1" fill="url(#bluePen)" />
<rect x="32" y="58" width="1" height="1" fill="url(#bluePen)" />
<rect x="33" y="58" width="1" height="1" fill="url(#bluePen)" />
<rect x="34" y="58" width="1" height="1" fill="url(#bluePen)" />
<rect x="35" y="58" width="1" height="1" fill="url(#bluePen)" />
<rect x="36" y="58" width="1" height="1" fill="url(#bluePen)" />
<rect x="37" y="58" width="1" height="1" fill="url(#bluePen)" />
<rect x="38" y="58" width="1" height="1" fill="url(#bluePen)" />
<rect x="39" y="58" width="1" height="1" fill="url(#bluePen)" />
<rect x="40" y="58" width="1" height="1" fill="url(#bluePen)" />
<rect x="41" y="58" width="1" height="1" fill="url(#bluePen)" />
<rect x="42" y="58" width="1" height="1" fill="url(#bluePen)" />
</svg>
