<svg xmlns="http://www.w3.org/2000/svg" width="1024" height="1024" viewBox="0 0 1024 1024" shape-rendering="geometricPrecision">
<path d="M 479.500 138.500 C 478.500 137 475.833 131 473.500 129.500 C 471.167 128 467.167 129 465.500 129.500 C 463.833 130 465.333 132 463.500 132.500 C 461.667 133 456.500 132 454.500 132.500 C 452.500 133 452.667 135.333 451.500 135.500 C 450.333 135.667 448.167 135.500 447.500 133.500 C 446.833 131.500 449.333 126.500 447.500 123.500 C 445.667 120.500 442 121.667 436.500 115.500 C 431 109.333 417.333 91.833 414.500 86.500 C 411.667 81.167 417.500 83.667 419.500 83.500 C 421.500 83.333 425.667 84.500 426.500 85.500 C 427.333 86.500 424.333 89.167 424.500 89.500 C 424.667 89.833 426 87.333 427.500 87.500 C 429 87.667 432.167 90.333 433.500 90.500 C 434.833 90.667 436.500 89.500 435.500 88.500 C 434.500 87.500 428.833 85.167 427.500 84.500" fill="none" stroke="#5f6391" stroke-width="2" stroke-linecap="round" stroke-linejoin="round"/>
<path d="M 602.500 153.500 C 601.833 153.500 602.167 156.167 598.500 153.500 C 594.833 150.833 586.833 141.333 580.500 137.500 C 574.167 133.667 568 131.500 560.500 130.500 C 553 129.500 540.500 131.667 535.500 131.500 C 530.500 131.333 531.500 130.500 530.500 129.500 C 529.500 128.500 529.333 125.833 529.500 125.500 C 529.667 125.167 531.167 127.167 531.500 127.500" fill="none" stroke="#5f6391" stroke-width="2" stroke-linecap="round" stroke-linejoin="round"/>
<path d="M 451.500 157.500 C 451.167 155.833 451.667 149 449.500 147.500 C 447.333 146 441.167 147.333 438.500 148.500 C 435.833 149.667 434.833 153.667 433.500 154.500 C 432.167 155.333 430.167 154 430.500 153.500 C 430.833 153 434.667 151.833 435.500 151.500" fill="none" stroke="#5f6391" stroke-width="2" stroke-linecap="round" stroke-linejoin="round"/>
<path d="M 310.500 274.500 C 311.833 273.833 317.167 272.500 318.500 270.500 C 319.833 268.500 317.667 263.333 318.500 262.500 C 319.333 261.667 322.333 265.167 323.500 265.500 C 324.667 265.833 325.833 265.833 325.500 264.500 C 325.167 263.167 321.333 259.500 321.500 257.500 C 321.667 255.500 325.667 254 326.500 252.500 C 327.333 251 325.333 250 326.500 248.500 C 327.667 247 332.500 244.833 333.500 243.500 C 334.500 242.167 333 240.333 332.500 240.500 C 332 240.667 330.833 243.833 330.500 244.500" fill="none" stroke="#5f6391" stroke-width="2" stroke-linecap="round" stroke-linejoin="round"/>
<path d="M 610.500 405.500 C 611.167 406.167 614 407.667 614.500 409.500 C 615 411.333 614 415 613.500 416.500 C 613 418 612.333 418.500 611.500 418.500 C 610.667 418.500 608.667 416.667 608.500 416.500 C 608.333 416.333 610.167 417.333 610.500 417.500" fill="none" stroke="#5f6391" stroke-width="2" stroke-linecap="round" stroke-linejoin="round"/>
<path d="M 265.500 442.500 C 264.500 443.167 260.833 443 259.500 446.500 C 258.167 450 258.333 460.500 257.500 463.500 C 256.667 466.500 254.833 463.667 254.500 464.500 C 254.167 465.333 255.833 467.333 255.500 468.500 C 255.167 469.667 254.500 471 252.500 471.500 C 250.500 472 245.500 472 243.500 471.500 C 241.500 471 241.667 469 240.500 468.500 C 239.333 468 237.333 467.667 236.500 468.500 C 235.667 469.333 236.667 472.333 235.500 473.500 C 234.333 474.667 230.500 476.167 229.500 475.500 C 228.500 474.833 231.333 471.333 229.500 469.500 C 227.667 467.667 220.500 465 218.500 464.500 C 216.500 464 220.667 466.333 217.500 466.500 C 214.333 466.667 203 464.500 199.500 465.500 C 196 466.500 197.667 471 196.500 472.500 C 195.333 474 193.500 474.833 192.500 474.500 C 191.500 474.167 189.667 471.667 190.500 470.500 C 191.333 469.333 196.333 468 197.500 467.500" fill="none" stroke="#5f6391" stroke-width="2" stroke-linecap="round" stroke-linejoin="round"/>
<path d="M 251.500 609.500 C 252.500 608.833 257.167 607.833 257.500 605.500 C 257.833 603.167 255.167 597.833 253.500 595.500 C 251.833 593.167 249.167 591.833 247.500 591.500 C 245.833 591.167 246.500 594.833 243.500 593.500 C 240.500 592.167 235.333 588.500 229.500 583.500 C 223.667 578.500 212.167 568 208.500 563.500 C 204.833 559 208.667 557.833 207.500 556.500 C 206.333 555.167 203.167 556.833 201.500 555.500 C 199.833 554.167 199 550 197.500 548.500 C 196 547 193.167 547.667 192.500 546.500 C 191.833 545.333 196.333 545.667 193.500 541.500 C 190.667 537.333 179.167 525.500 175.500 521.500 C 171.833 517.500 173.333 517.667 171.500 517.500 C 169.667 517.333 165.333 520.833 164.500 520.500 C 163.667 520.167 168 517.333 166.500 515.500 C 165 513.667 158.500 513 155.500 509.500 C 152.500 506 153 500.500 148.500 494.500 C 144 488.500 132.333 478 128.500 473.500 C 124.667 469 125.500 470 125.500 467.500 C 125.500 465 126.500 460 128.500 458.500 C 130.500 457 136.333 458.333 137.500 458.500 C 138.667 458.667 135.833 459.333 135.500 459.500" fill="none" stroke="#5f6391" stroke-width="2" stroke-linecap="round" stroke-linejoin="round"/>
<path d="M 358.500 787.500 C 353.333 782.333 334 762.500 327.500 756.500 C 321 750.500 322 752.500 319.500 751.500 C 317 750.500 313.667 751.333 312.500 750.500 C 311.333 749.667 314.167 749.500 312.500 746.500 C 310.833 743.500 304.333 735.833 302.500 732.500 C 300.667 729.167 303.500 730.667 301.500 726.500 C 299.500 722.333 292.500 711.833 290.500 707.500 C 288.500 703.167 291.167 704 289.500 700.500 C 287.833 697 282.167 690 280.500 686.500 C 278.833 683 281.167 683.667 279.500 679.500 C 277.833 675.333 272 665.333 270.500 661.500 C 269 657.667 272 658.667 270.500 656.500 C 269 654.333 262.333 650.667 261.500 648.500 C 260.667 646.333 265 645.333 265.500 643.500 C 266 641.667 265.333 640.167 264.500 637.500 C 263.667 634.833 261.833 629.333 260.500 627.500 C 259.167 625.667 257.333 627.500 256.500 626.500 C 255.667 625.500 255.667 623.500 255.500 621.500 C 255.333 619.500 254.833 615.667 255.500 614.500 C 256.167 613.333 258.833 615.333 259.500 614.500 C 260.167 613.667 259.500 610.333 259.500 609.500" fill="none" stroke="#5f6391" stroke-width="2" stroke-linecap="round" stroke-linejoin="round"/>
<path d="M 339.500 833.500 C 339.833 833 341.667 831.333 341.500 830.500 C 341.333 829.667 340.667 827.833 338.500 828.500 C 336.333 829.167 330 832.667 328.500 834.500 C 327 836.333 329.667 839 329.500 839.500 C 329.333 840 328.833 837.667 327.500 837.500 C 326.167 837.333 323 837.833 321.500 838.500 C 320 839.167 321.167 841 318.500 841.500 C 315.833 842 308.500 842.167 305.500 841.500 C 302.500 840.833 302 837.667 300.500 837.500 C 299 837.333 297.500 840.333 296.500 840.500 C 295.500 840.667 294.500 838.667 294.500 838.500 C 294.500 838.333 296.167 839.333 296.500 839.500" fill="none" stroke="#5f6391" stroke-width="2" stroke-linecap="round" stroke-linejoin="round"/>
<path d="M 446.500 841.500 C 446.167 842.333 446 846.500 444.500 846.500 C 443 846.500 438.500 843 437.500 841.500 C 436.500 840 438.833 838.333 438.500 837.500 C 438.167 836.667 436.667 836.167 435.500 836.500 C 434.333 836.833 435.833 841.333 431.500 839.500 C 427.167 837.667 414.333 828 409.500 825.500 C 404.667 823 407.833 827.833 402.500 824.500 C 397.167 821.167 383.167 808.500 377.500 805.500 C 371.833 802.500 370.833 808.333 368.500 806.500 C 366.167 804.667 364 796.167 363.500 794.500 C 363 792.833 365.167 796.167 365.500 796.500" fill="none" stroke="#5f6391" stroke-width="2" stroke-linecap="round" stroke-linejoin="round"/>
<path d="M 298.500 846.500 C 297.667 846.333 294.833 846.667 293.500 845.500 C 292.167 844.333 291.500 840.333 290.500 839.500 C 289.500 838.667 288.667 840.833 287.500 840.500 C 286.333 840.167 284.500 838 283.500 837.500 C 282.500 837 282.333 836.167 281.500 837.500 C 280.667 838.833 279.667 844.833 278.500 845.500 C 277.333 846.167 282.667 842.167 274.500 841.500 C 266.333 840.833 240.167 844 229.500 841.500 C 218.833 839 214 831 210.500 826.500 C 207 822 210 817.333 208.500 814.500 C 207 811.667 202.333 811 201.500 809.500 C 200.667 808 203.333 808.500 203.500 805.500 C 203.667 802.500 202 794.167 202.500 791.500 C 203 788.833 205.833 790.667 206.500 789.500 C 207.167 788.333 200.667 788.500 206.500 784.500 C 212.333 780.500 234 769.167 241.500 765.500 C 249 761.833 249.167 763 251.500 762.500 C 253.833 762 254.500 762 255.500 762.500 C 256.500 763 257.500 765.333 257.500 765.500 C 257.500 765.667 255.833 763.833 255.500 763.500" fill="none" stroke="#5f6391" stroke-width="2" stroke-linecap="round" stroke-linejoin="round"/>
<path d="M 676.500 95.500 C 678 95.667 682.833 94.500 685.500 96.500 C 688.167 98.500 691 103.833 692.500 107.500 C 694 111.167 694.667 116.500 694.500 118.500 C 694.333 120.500 691.333 119.167 691.500 119.500 C 691.667 119.833 694.667 118.667 695.500 120.500 C 696.333 122.333 696.833 127.500 696.500 130.500 C 696.167 133.500 694.500 137.500 693.500 138.500 C 692.500 139.500 690.667 136.667 690.500 136.500 C 690.333 136.333 692.167 137.333 692.500 137.500" fill="none" stroke="#5f6391" stroke-width="2" stroke-linecap="round" stroke-linejoin="round"/>
<path d="M 339.500 100.500 C 338.167 102.667 333.167 109.667 331.500 113.500 C 329.833 117.333 330.167 121.500 329.500 123.500 C 328.833 125.500 328.167 125.500 327.500 125.500 C 326.833 125.500 325.333 123.500 325.500 123.500 C 325.667 123.500 327.333 125.333 328.500 125.500 C 329.667 125.667 331.667 124.333 332.500 124.500 C 333.333 124.667 333.667 126.167 333.500 126.500 C 333.333 126.833 331.833 126.500 331.500 126.500" fill="none" stroke="#5f6391" stroke-width="2" stroke-linecap="round" stroke-linejoin="round"/>
<path d="M 676.500 104.500 C 676.833 104.500 676.667 101.667 678.500 104.500 C 680.333 107.333 686 116.333 687.500 121.500 C 689 126.667 686.833 132.500 687.500 135.500 C 688.167 138.500 691 135.667 691.500 139.500 C 692 143.333 692.667 145.500 690.500 158.500 C 688.333 171.500 682.833 204.500 678.500 217.500 C 674.167 230.500 663.833 226.667 664.500 236.500 C 665.167 246.333 679 269.500 682.500 276.500 C 686 283.500 685.333 278.500 685.500 278.500 C 685.667 278.500 683.833 276.833 683.500 276.500" fill="none" stroke="#5f6391" stroke-width="2" stroke-linecap="round" stroke-linejoin="round"/>
<path d="M 324.500 110.500 C 323.333 112.667 318.500 120 317.500 123.500 C 316.500 127 318.667 129.833 318.500 131.500 C 318.333 133.167 316.500 132.833 316.500 133.500 C 316.500 134.167 318 135.500 318.500 135.500 C 319 135.500 319.333 133.833 319.500 133.500" fill="none" stroke="#5f6391" stroke-width="2" stroke-linecap="round" stroke-linejoin="round"/>
<path d="M 498.500 125.500 C 498.167 126.167 497.333 128.833 496.500 129.500 C 495.667 130.167 494.833 128.667 493.500 129.500 C 492.167 130.333 490 133.833 488.500 134.500 C 487 135.167 485.333 134.500 484.500 133.500 C 483.667 132.500 485 129 483.500 128.500 C 482 128 476.833 130.167 475.500 130.500" fill="none" stroke="#5f6391" stroke-width="2" stroke-linecap="round" stroke-linejoin="round"/>
<path d="M 328.500 126.500 C 328.333 129.833 328.167 142.167 327.500 146.500 C 326.833 150.833 324.667 150.333 324.500 152.500 C 324.333 154.667 326.167 154.667 326.500 159.500 C 326.833 164.333 327 177.333 326.500 181.500 C 326 185.667 324.500 184.167 323.500 184.500 C 322.500 184.833 321.333 184.500 320.500 183.500 C 319.667 182.500 318.833 182 318.500 178.500 C 318.167 175 319 165.500 318.500 162.500 C 318 159.500 315.333 162.500 315.500 160.500 C 315.667 158.500 319.333 152.833 319.500 150.500 C 319.667 148.167 316.833 149 316.500 146.500 C 316.167 144 317.333 137.333 317.500 135.500" fill="none" stroke="#5f6391" stroke-width="2" stroke-linecap="round" stroke-linejoin="round"/>
<path d="M 448.500 135.500 C 448.333 135.833 449.333 137.167 447.500 137.500 C 445.667 137.833 440.833 136.333 437.500 137.500 C 434.167 138.667 430.167 143.500 427.500 144.500 C 424.833 145.500 422.500 143.167 421.500 143.500 C 420.500 143.833 423 144.667 421.500 146.500 C 420 148.333 415 152.500 412.500 154.500 C 410 156.500 408 158 406.500 158.500 C 405 159 403.167 158 403.500 157.500 C 403.833 157 407.667 155.833 408.500 155.500" fill="none" stroke="#5f6391" stroke-width="2" stroke-linecap="round" stroke-linejoin="round"/>
<path d="M 469.500 136.500 C 469.333 136.833 469.667 138.333 468.500 138.500 C 467.333 138.667 464.167 136.833 462.500 137.500 C 460.833 138.167 459.667 142.167 458.500 142.500 C 457.333 142.833 455.333 139.833 455.500 139.500 C 455.667 139.167 458.833 140.333 459.500 140.500" fill="none" stroke="#5f6391" stroke-width="2" stroke-linecap="round" stroke-linejoin="round"/>
<path d="M 554.500 139.500 C 554.667 140.167 554.833 143.333 555.500 143.500 C 556.167 143.667 556.167 140.167 558.500 140.500 C 560.833 140.833 566.833 145 569.500 145.500 C 572.167 146 574 143.500 574.500 143.500 C 575 143.500 572.833 145.167 572.500 145.500" fill="none" stroke="#5f6391" stroke-width="2" stroke-linecap="round" stroke-linejoin="round"/>
<path d="M 584.500 153.500 C 585.667 154.333 590 157.833 591.500 158.500 C 593 159.167 593.667 157.833 593.500 157.500 C 593.333 157.167 591.167 156.333 590.500 156.500 C 589.833 156.667 589.833 158.500 589.500 158.500 C 589.167 158.500 588.667 156.833 588.500 156.500" fill="none" stroke="#5f6391" stroke-width="2" stroke-linecap="round" stroke-linejoin="round"/>
<path d="M 402.500 158.500 C 398.333 162.167 381.833 176 377.500 180.500 C 373.167 185 377.667 184.167 376.500 185.500 C 375.333 186.833 372.667 185.167 370.500 188.500 C 368.333 191.833 367.333 200 363.500 205.500 C 359.667 211 350.333 219.500 347.500 221.500 C 344.667 223.500 345.833 218.500 346.500 217.500 C 347.167 216.500 350.667 215.833 351.500 215.500" fill="none" stroke="#5f6391" stroke-width="2" stroke-linecap="round" stroke-linejoin="round"/>
<path d="M 593.500 158.500 C 594 159 595.333 161 596.500 161.500 C 597.667 162 599.667 161 600.500 161.500 C 601.333 162 601.833 163.833 601.500 164.500 C 601.167 165.167 599.833 166.333 598.500 165.500 C 597.167 164.667 594.333 160.500 593.500 159.500" fill="none" stroke="#5f6391" stroke-width="2" stroke-linecap="round" stroke-linejoin="round"/>
<path d="M 605.500 158.500 C 605.333 159 604.333 160.833 604.500 161.500 C 604.667 162.167 605.667 162.833 606.500 162.500 C 607.333 162.167 609.500 160.167 609.500 159.500 C 609.500 158.833 606.833 158.167 606.500 158.500 C 606.167 158.833 607.333 161 607.500 161.500" fill="none" stroke="#5f6391" stroke-width="2" stroke-linecap="round" stroke-linejoin="round"/>
<path d="M 603.500 168.500 C 606.167 171.167 617 182.167 619.500 184.500 C 622 186.833 619.333 182.500 618.500 182.500 C 617.667 182.500 615.333 184.667 614.500 184.500 C 613.667 184.333 613.500 181.667 613.500 181.500 C 613.500 181.333 614.333 183.167 614.500 183.500" fill="none" stroke="#5f6391" stroke-width="2" stroke-linecap="round" stroke-linejoin="round"/>
<path d="M 616.500 170.500 C 618 171.500 623.500 175 625.500 176.500 C 627.500 178 628.167 178.667 628.500 179.500 C 628.833 180.333 628.167 181.500 627.500 181.500 C 626.833 181.500 625 180.333 624.500 179.500 C 624 178.667 624.500 177 624.500 176.500" fill="none" stroke="#5f6391" stroke-width="2" stroke-linecap="round" stroke-linejoin="round"/>
<path d="M 378.500 189.500 C 378 190 375.833 191.333 375.500 192.500 C 375.167 193.667 376.667 195.500 376.500 196.500 C 376.333 197.500 375.833 198.333 374.500 198.500 C 373.167 198.667 369 197.167 368.500 197.500 C 368 197.833 371.333 199.500 371.500 200.500 C 371.667 201.500 369.500 203.833 369.500 203.500 C 369.500 203.167 371.167 199.333 371.500 198.500" fill="none" stroke="#5f6391" stroke-width="2" stroke-linecap="round" stroke-linejoin="round"/>
<path d="M 331.500 200.500 C 331 200.833 328.167 200.167 328.500 202.500 C 328.833 204.833 333 211.167 333.500 214.500 C 334 217.833 331.167 220.667 331.500 222.500 C 331.833 224.333 335.333 225.500 335.500 225.500 C 335.667 225.500 333 223 332.500 222.500" fill="none" stroke="#5f6391" stroke-width="2" stroke-linecap="round" stroke-linejoin="round"/>
<path d="M 581.500 265.500 C 580.667 266.833 577.833 272 576.500 273.500 C 575.167 275 573.833 273.833 573.500 274.500 C 573.167 275.167 574 277.500 574.500 277.500 C 575 277.500 576.500 274.667 576.500 274.500 C 576.500 274.333 574.833 276.167 574.500 276.500" fill="none" stroke="#5f6391" stroke-width="2" stroke-linecap="round" stroke-linejoin="round"/>
<path d="M 684.500 282.500 C 685.333 283.333 688.833 285.833 689.500 287.500 C 690.167 289.167 689.500 291.500 688.500 292.500 C 687.500 293.500 685.167 294.667 683.500 293.500 C 681.833 292.333 679.167 287.167 678.500 285.500 C 677.833 283.833 679.167 283.333 679.500 283.500 C 679.833 283.667 680.333 286 680.500 286.500" fill="none" stroke="#5f6391" stroke-width="2" stroke-linecap="round" stroke-linejoin="round"/>
<path d="M 304.500 295.500 C 301.167 303 288.833 332.500 284.500 340.500 C 280.167 348.500 278.167 341.333 278.500 343.500 C 278.833 345.667 285.667 351.500 286.500 353.500 C 287.333 355.500 284.833 355.333 283.500 355.500 C 282.167 355.667 279.500 355.667 278.500 354.500 C 277.500 353.333 277 349.500 277.500 348.500 C 278 347.500 280.333 349 281.500 348.500 C 282.667 348 284 346.667 284.500 345.500 C 285 344.333 283.667 342.167 284.500 341.500 C 285.333 340.833 289.167 342.167 289.500 341.500 C 289.833 340.833 287 338.167 286.500 337.500" fill="none" stroke="#5f6391" stroke-width="2" stroke-linecap="round" stroke-linejoin="round"/>
<path d="M 684.500 296.500 C 684.667 297.500 685.667 300.833 685.500 302.500 C 685.333 304.167 683.167 305.333 683.500 306.500 C 683.833 307.667 686 309.500 687.500 309.500 C 689 309.500 692.167 307.667 692.500 306.500 C 692.833 305.333 689.500 303.667 689.500 302.500 C 689.500 301.333 692.333 300.500 692.500 299.500 C 692.667 298.500 690.667 296.500 690.500 296.500 C 690.333 296.500 691.333 299 691.500 299.500" fill="none" stroke="#5f6391" stroke-width="2" stroke-linecap="round" stroke-linejoin="round"/>
<path d="M 691.500 301.500 C 692 302.333 694.833 305 694.500 306.500 C 694.167 308 690.500 309.167 689.500 310.500 C 688.500 311.833 688.167 314.167 688.500 314.500 C 688.833 314.833 691.333 313.333 691.500 312.500 C 691.667 311.667 689.833 310 689.500 309.500" fill="none" stroke="#5f6391" stroke-width="2" stroke-linecap="round" stroke-linejoin="round"/>
<path d="M 692.500 314.500 C 692.500 315.333 691.500 318.333 692.500 319.500 C 693.500 320.667 697.667 320.667 698.500 321.500 C 699.333 322.333 698.500 324.333 697.500 324.500 C 696.500 324.667 693 322.500 692.500 322.500 C 692 322.500 694.500 323.167 694.500 324.500 C 694.500 325.833 692.500 329.833 692.500 330.500 C 692.500 331.167 694.167 328.833 694.500 328.500" fill="none" stroke="#5f6391" stroke-width="2" stroke-linecap="round" stroke-linejoin="round"/>
<path d="M 695.500 334.500 C 695.333 335.500 694.167 340 694.500 340.500 C 694.833 341 696.333 337.833 697.500 337.500 C 698.667 337.167 701.333 337.333 701.500 338.500 C 701.667 339.667 698.333 343 698.500 344.500 C 698.667 346 702.167 347.333 702.500 347.500 C 702.833 347.667 700.833 345.833 700.500 345.500" fill="none" stroke="#5f6391" stroke-width="2" stroke-linecap="round" stroke-linejoin="round"/>
<path d="M 275.500 354.500 C 274.833 357.500 272.833 368.333 271.500 372.500 C 270.167 376.667 268 377.833 267.500 379.500 C 267 381.167 268 382.167 268.500 382.500 C 269 382.833 270 383 270.500 381.500 C 271 380 271.333 374.833 271.500 373.500" fill="none" stroke="#5f6391" stroke-width="2" stroke-linecap="round" stroke-linejoin="round"/>
<path d="M 279.500 369.500 C 277.500 377.167 270.167 407.667 267.500 415.500 C 264.833 423.333 264.500 416.667 263.500 416.500 C 262.500 416.333 261.333 415.833 261.500 414.500 C 261.667 413.167 264.333 410.333 264.500 408.500 C 264.667 406.667 262.333 406.333 262.500 403.500 C 262.667 400.667 264.500 394 265.500 391.500 C 266.500 389 268.500 389.500 268.500 388.500 C 268.500 387.500 266 385.500 265.500 385.500 C 265 385.500 265.167 388 265.500 388.500 C 265.833 389 267.167 388.500 267.500 388.500" fill="none" stroke="#5f6391" stroke-width="2" stroke-linecap="round" stroke-linejoin="round"/>
<path d="M 702.500 372.500 C 702 374.667 698.333 382.833 699.500 385.500 C 700.667 388.167 708.333 387.667 709.500 388.500 C 710.667 389.333 707.333 389 706.500 390.500 C 705.667 392 705.833 397.667 704.500 397.500 C 703.167 397.333 698.833 391.167 698.500 389.500 C 698.167 387.833 701.833 387.833 702.500 387.500" fill="none" stroke="#5f6391" stroke-width="2" stroke-linecap="round" stroke-linejoin="round"/>
<path d="M 705.500 397.500 C 705 399.667 702 407 702.500 410.500 C 703 414 706.833 417.333 708.500 418.500 C 710.167 419.667 712.167 416.167 712.500 417.500 C 712.833 418.833 711.667 424.167 710.500 426.500 C 709.333 428.833 706.333 429.667 705.500 431.500 C 704.667 433.333 705.333 436.833 705.500 437.500 C 705.667 438.167 706.333 435.833 706.500 435.500" fill="none" stroke="#5f6391" stroke-width="2" stroke-linecap="round" stroke-linejoin="round"/>
<path d="M 710.500 398.500 C 709.500 399.500 705 403.667 704.500 404.500 C 704 405.333 706.833 402.667 707.500 403.500 C 708.167 404.333 707.833 408.167 708.500 409.500 C 709.167 410.833 711.333 411.500 711.500 411.500 C 711.667 411.500 709.833 409.833 709.500 409.500" fill="none" stroke="#5f6391" stroke-width="2" stroke-linecap="round" stroke-linejoin="round"/>
<path d="M 410.500 403.500 C 414.167 407.333 428.333 423 432.500 426.500 C 436.667 430 434.333 424.500 435.500 424.500 C 436.667 424.500 438.833 425.500 439.500 426.500 C 440.167 427.500 440.500 429.500 439.500 430.500 C 438.500 431.500 434.167 432 433.500 432.500 C 432.833 433 435.167 433.333 435.500 433.500" fill="none" stroke="#5f6391" stroke-width="2" stroke-linecap="round" stroke-linejoin="round"/>
<path d="M 605.500 425.500 C 604 427.500 599.167 435.333 596.500 437.500 C 593.833 439.667 592.333 436.667 589.500 438.500 C 586.667 440.333 583.500 446.167 579.500 448.500 C 575.500 450.833 568.333 450.833 565.500 452.500 C 562.667 454.167 564 457.833 562.500 458.500 C 561 459.167 558.833 456.333 556.500 456.500 C 554.167 456.667 552.833 459 548.500 459.500 C 544.167 460 539.833 460.167 530.500 459.500 C 521.167 458.833 500.500 456.833 492.500 455.500 C 484.500 454.167 485 453.333 482.500 451.500 C 480 449.667 479.167 444.833 477.500 444.500 C 475.833 444.167 473.167 448.333 472.500 449.500 C 471.833 450.667 473 451.333 473.500 451.500 C 474 451.667 475.333 451 475.500 450.500 C 475.667 450 474.833 448.500 474.500 448.500 C 474.167 448.500 473.667 450.167 473.500 450.500" fill="none" stroke="#5f6391" stroke-width="2" stroke-linecap="round" stroke-linejoin="round"/>
<path d="M 453.500 435.500 C 453.667 436.167 451.500 439 454.500 439.500 C 457.500 440 469.333 437.667 471.500 438.500 C 473.667 439.333 468.667 443.500 467.500 444.500 C 466.333 445.500 465.667 445.333 464.500 444.500 C 463.333 443.667 461.167 440.333 460.500 439.500" fill="none" stroke="#5f6391" stroke-width="2" stroke-linecap="round" stroke-linejoin="round"/>
<path d="M 500.500 446.500 C 502.167 446.833 507 448.333 510.500 448.500 C 514 448.667 519.833 447.333 521.500 447.500 C 523.167 447.667 521.500 449.333 520.500 449.500 C 519.500 449.667 516 448 515.500 448.500 C 515 449 516.500 452.333 517.500 452.500 C 518.500 452.667 518.667 449.667 521.500 449.500 C 524.333 449.333 532 450.667 534.500 451.500 C 537 452.333 536.500 454.333 536.500 454.500 C 536.500 454.667 534.833 452.833 534.500 452.500" fill="none" stroke="#5f6391" stroke-width="2" stroke-linecap="round" stroke-linejoin="round"/>
<path d="M 710.500 454.500 C 710.500 456 711.167 461.500 710.500 463.500 C 709.833 465.500 707.167 466.333 706.500 466.500 C 705.833 466.667 705.833 464.500 706.500 464.500 C 707.167 464.500 709.833 465.333 710.500 466.500 C 711.167 467.667 712.500 468.500 710.500 471.500 C 708.500 474.500 701.333 480.500 698.500 484.500 C 695.667 488.500 694.333 492.500 693.500 495.500 C 692.667 498.500 693.333 501.833 693.500 502.500 C 693.667 503.167 694.333 500 694.500 499.500" fill="none" stroke="#5f6391" stroke-width="2" stroke-linecap="round" stroke-linejoin="round"/>
<path d="M 753.500 469.500 C 753 470.333 752 474.167 750.500 474.500 C 749 474.833 745.167 472.167 744.500 471.500 C 743.833 470.833 746 470.333 746.500 470.500 C 747 470.667 748.167 472.500 747.500 472.500 C 746.833 472.500 743.333 470.833 742.500 470.500" fill="none" stroke="#5f6391" stroke-width="2" stroke-linecap="round" stroke-linejoin="round"/>
<path d="M 757.500 469.500 C 757.667 469.833 757.667 471.333 758.500 471.500 C 759.333 471.667 763 470 762.500 470.500 C 762 471 757 474.167 755.500 474.500 C 754 474.833 753.333 473.167 753.500 472.500 C 753.667 471.833 756 470.833 756.500 470.500" fill="none" stroke="#5f6391" stroke-width="2" stroke-linecap="round" stroke-linejoin="round"/>
<path d="M 778.500 469.500 C 779.333 470.167 782 473.333 783.500 473.500 C 785 473.667 786 471 787.500 470.500 C 789 470 791.167 469.833 792.500 470.500 C 793.833 471.167 794 474.167 795.500 474.500 C 797 474.833 800.833 472.500 801.500 472.500 C 802.167 472.500 799.833 474.167 799.500 474.500" fill="none" stroke="#5f6391" stroke-width="2" stroke-linecap="round" stroke-linejoin="round"/>
<path d="M 797.500 475.500 C 797.833 476.167 798.333 479.167 799.500 479.500 C 800.667 479.833 804.167 476.833 804.500 477.500 C 804.833 478.167 801.333 482.167 801.500 483.500 C 801.667 484.833 804.500 485.500 805.500 485.500 C 806.500 485.500 807.167 483.833 807.500 483.500" fill="none" stroke="#5f6391" stroke-width="2" stroke-linecap="round" stroke-linejoin="round"/>
<path d="M 249.500 479.500 C 250.167 480.667 253.833 484.667 253.500 486.500 C 253.167 488.333 248.500 489.333 247.500 490.500 C 246.500 491.667 246.833 492.333 247.500 493.500 C 248.167 494.667 250.500 497 251.500 497.500 C 252.500 498 253.167 498.167 253.500 496.500 C 253.833 494.833 253.500 489 253.500 487.500" fill="none" stroke="#5f6391" stroke-width="2" stroke-linecap="round" stroke-linejoin="round"/>
<path d="M 702.500 481.500 C 703.667 481.833 708.667 482.833 709.500 483.500 C 710.333 484.167 709 485.500 707.500 485.500 C 706 485.500 702 483.333 700.500 483.500 C 699 483.667 698.333 486 698.500 486.500 C 698.667 487 701.500 486 701.500 486.500 C 701.500 487 699 489 698.500 489.500" fill="none" stroke="#5f6391" stroke-width="2" stroke-linecap="round" stroke-linejoin="round"/>
<path d="M 811.500 483.500 C 810.500 484.833 806.167 490 805.500 491.500 C 804.833 493 806 493 807.500 492.500 C 809 492 813.167 488.833 814.500 488.500 C 815.833 488.167 815.667 490.167 815.500 490.500 C 815.333 490.833 813.833 490.500 813.500 490.500" fill="none" stroke="#5f6391" stroke-width="2" stroke-linecap="round" stroke-linejoin="round"/>
<path d="M 708.500 485.500 C 708.833 485.833 710.333 486.500 710.500 487.500 C 710.667 488.500 709.167 490.667 709.500 491.500 C 709.833 492.333 712.167 484.667 712.500 492.500 C 712.833 500.333 711.333 530 711.500 538.500 C 711.667 547 708.333 542.667 713.500 543.500 C 718.667 544.333 737.333 543.833 742.500 543.500 C 747.667 543.167 741.500 541.500 744.500 541.500 C 747.500 541.500 757.333 543.667 760.500 543.500 C 763.667 543.333 763.333 541.333 763.500 540.500 C 763.667 539.667 761.333 538.167 761.500 538.500 C 761.667 538.833 764 542.167 764.500 542.500 C 765 542.833 763.333 541.167 764.500 540.500 C 765.667 539.833 767 538.500 771.500 538.500 C 776 538.500 786.833 540.667 791.500 540.500 C 796.167 540.333 797 537.667 799.500 537.500 C 802 537.333 804.500 540.833 806.500 539.500 C 808.500 538.167 811.500 532.500 811.500 529.500 C 811.500 526.500 807 525.333 806.500 521.500 C 806 517.667 807.833 509.333 808.500 506.500 C 809.167 503.667 809.833 504.500 810.500 504.500 C 811.167 504.500 811.667 506.333 812.500 506.500 C 813.333 506.667 815.667 508 815.500 505.500 C 815.333 503 812.167 493.833 811.500 491.500" fill="none" stroke="#5f6391" stroke-width="2" stroke-linecap="round" stroke-linejoin="round"/>
<path d="M 692.500 503.500 C 685.833 512.500 661.333 546.500 652.500 557.500 C 643.667 568.500 642.833 567.167 639.500 569.500 C 636.167 571.833 634.500 570.167 632.500 571.500 C 630.500 572.833 628.500 577 627.500 577.500 C 626.500 578 626.333 575 626.500 574.500 C 626.667 574 628.333 574.167 628.500 574.500 C 628.667 574.833 627.667 576.167 627.500 576.500" fill="none" stroke="#5f6391" stroke-width="2" stroke-linecap="round" stroke-linejoin="round"/>
<path d="M 252.500 508.500 C 253.667 509.333 258.833 512 259.500 513.500 C 260.167 515 258 516.833 256.500 517.500 C 255 518.167 251.500 514 250.500 517.500 C 249.500 521 251.167 534.500 250.500 538.500 C 249.833 542.500 246.833 541.333 246.500 541.500 C 246.167 541.667 248.167 539.833 248.500 539.500" fill="none" stroke="#5f6391" stroke-width="2" stroke-linecap="round" stroke-linejoin="round"/>
<path d="M 168.500 518.500 C 168.167 519.167 166 521 166.500 522.500 C 167 524 171 526.167 171.500 527.500 C 172 528.833 168.500 529.833 169.500 530.500 C 170.500 531.167 176.500 531.333 177.500 531.500 C 178.500 531.667 175.833 531.500 175.500 531.500" fill="none" stroke="#5f6391" stroke-width="2" stroke-linecap="round" stroke-linejoin="round"/>
<path d="M 279.500 537.500 C 281.333 539.167 287.333 545.167 290.500 547.500 C 293.667 549.833 295.667 548.833 298.500 551.500 C 301.333 554.167 305.667 561.667 307.500 563.500 C 309.333 565.333 309.500 563.167 309.500 562.500 C 309.500 561.833 308.167 559.833 307.500 559.500 C 306.833 559.167 305.833 560.333 305.500 560.500" fill="none" stroke="#5f6391" stroke-width="2" stroke-linecap="round" stroke-linejoin="round"/>
<path d="M 805.500 540.500 C 805.333 541.167 805.500 543.333 804.500 544.500 C 803.500 545.667 802.500 547 799.500 547.500 C 796.500 548 789 547.167 786.500 547.500 C 784 547.833 784.500 549.333 784.500 549.500 C 784.500 549.667 786.167 548.667 786.500 548.500" fill="none" stroke="#5f6391" stroke-width="2" stroke-linecap="round" stroke-linejoin="round"/>
<path d="M 713.500 544.500 C 712.833 545.167 710 545.667 709.500 548.500 C 709 551.333 711.333 546.833 710.500 561.500 C 709.667 576.167 705.500 623.500 704.500 636.500 C 703.500 649.500 704 638.667 704.500 639.500 C 705 640.333 707.333 641.500 707.500 641.500 C 707.667 641.500 705.833 639.833 705.500 639.500" fill="none" stroke="#5f6391" stroke-width="2" stroke-linecap="round" stroke-linejoin="round"/>
<path d="M 315.500 560.500 C 316 561.500 316.333 565 318.500 566.500 C 320.667 568 326.500 568.333 328.500 569.500 C 330.500 570.667 330.833 572.833 330.500 573.500 C 330.167 574.167 327.333 574.167 326.500 573.500 C 325.667 572.833 325.667 570.167 325.500 569.500" fill="none" stroke="#5f6391" stroke-width="2" stroke-linecap="round" stroke-linejoin="round"/>
<path d="M 634.500 572.500 C 633.500 573.500 629.167 577.500 628.500 578.500 C 627.833 579.500 630.167 578 630.500 578.500 C 630.833 579 632 580.333 630.500 581.500 C 629 582.667 623.333 585.500 621.500 585.500 C 619.667 585.500 618.833 582.833 619.500 581.500 C 620.167 580.167 624.500 578.167 625.500 577.500" fill="none" stroke="#5f6391" stroke-width="2" stroke-linecap="round" stroke-linejoin="round"/>
<path d="M 327.500 574.500 C 327.500 574.833 326.500 576.500 327.500 576.500 C 328.500 576.500 331.500 573.833 333.500 574.500 C 335.500 575.167 337.333 579.333 339.500 580.500 C 341.667 581.667 344.833 580.667 346.500 581.500 C 348.167 582.333 349.667 584.333 349.500 585.500 C 349.333 586.667 346.667 589 345.500 588.500 C 344.333 588 343 583.500 342.500 582.500" fill="none" stroke="#5f6391" stroke-width="2" stroke-linecap="round" stroke-linejoin="round"/>
<path d="M 349.500 583.500 C 350.667 583.667 354.833 583.833 356.500 584.500 C 358.167 585.167 358.333 587.333 359.500 587.500 C 360.667 587.667 362.333 585.167 363.500 585.500 C 364.667 585.833 365 589 366.500 589.500 C 368 590 371.833 588.500 372.500 588.500 C 373.167 588.500 370.833 589.333 370.500 589.500" fill="none" stroke="#5f6391" stroke-width="2" stroke-linecap="round" stroke-linejoin="round"/>
<path d="M 612.500 587.500 C 612 588.167 610.333 591.167 609.500 591.500 C 608.667 591.833 608.500 589.667 607.500 589.500 C 606.500 589.333 605 589 603.500 590.500 C 602 592 600.500 597.667 598.500 598.500 C 596.500 599.333 593 594.833 591.500 595.500 C 590 596.167 590.667 602 589.500 602.500 C 588.333 603 585.167 598.833 584.500 598.500 C 583.833 598.167 585.333 600.167 585.500 600.500" fill="none" stroke="#5f6391" stroke-width="2" stroke-linecap="round" stroke-linejoin="round"/>
<path d="M 392.500 595.500 C 395.833 596.167 409.167 598.500 412.500 599.500 C 415.833 600.500 411.667 600.833 412.500 601.500 C 413.333 602.167 415.167 602.667 417.500 603.500 C 419.833 604.333 423.833 606.167 426.500 606.500 C 429.167 606.833 432.167 605.333 433.500 605.500 C 434.833 605.667 435 607 434.500 607.500 C 434 608 431.167 608.667 430.500 608.500 C 429.833 608.333 430.500 606.833 430.500 606.500" fill="none" stroke="#5f6391" stroke-width="2" stroke-linecap="round" stroke-linejoin="round"/>
<path d="M 382.500 599.500 C 384 600 389.500 602.333 391.500 602.500 C 393.500 602.667 393.500 600.500 394.500 600.500 C 395.500 600.500 397.500 601.500 397.500 602.500 C 397.500 603.500 395.167 606.333 394.500 606.500 C 393.833 606.667 393.333 603.833 393.500 603.500 C 393.667 603.167 395.167 604.333 395.500 604.500" fill="none" stroke="#5f6391" stroke-width="2" stroke-linecap="round" stroke-linejoin="round"/>
<path d="M 716.500 599.500 C 716.833 599.833 718.333 598.167 718.500 601.500 C 718.667 604.833 717.167 616.167 717.500 619.500 C 717.833 622.833 720.333 621.167 720.500 621.500 C 720.667 621.833 719.333 619.333 718.500 621.500 C 717.667 623.667 715.667 632.667 715.500 634.500 C 715.333 636.333 717.167 632.833 717.500 632.500" fill="none" stroke="#5f6391" stroke-width="2" stroke-linecap="round" stroke-linejoin="round"/>
<path d="M 586.500 602.500 C 583.333 604.667 570.500 614 567.500 615.500 C 564.500 617 568.667 612.667 568.500 611.500 C 568.333 610.333 565.833 609.667 566.500 608.500 C 567.167 607.333 570.333 605.167 572.500 604.500 C 574.667 603.833 578.667 604.333 579.500 604.500 C 580.333 604.667 577.833 605.333 577.500 605.500" fill="none" stroke="#5f6391" stroke-width="2" stroke-linecap="round" stroke-linejoin="round"/>
<path d="M 434.500 608.500 C 435.833 608.667 442.167 608.500 442.500 609.500 C 442.833 610.500 438.333 613.500 436.500 614.500 C 434.667 615.500 433 616 431.500 615.500 C 430 615 428.667 611.833 427.500 611.500 C 426.333 611.167 426 613.667 424.500 613.500 C 423 613.333 419.500 611 418.500 610.500" fill="none" stroke="#5f6391" stroke-width="2" stroke-linecap="round" stroke-linejoin="round"/>
<path d="M 442.500 610.500 C 443.833 611 448.333 613.333 450.500 613.500 C 452.667 613.667 455.167 610.667 455.500 611.500 C 455.833 612.333 454 617.500 452.500 618.500 C 451 619.500 447.500 618.167 446.500 617.500 C 445.500 616.833 446 615.167 446.500 614.500 C 447 613.833 449 613.667 449.500 613.500" fill="none" stroke="#5f6391" stroke-width="2" stroke-linecap="round" stroke-linejoin="round"/>
<path d="M 543.500 614.500 C 542.167 615.167 540 617.833 535.500 618.500 C 531 619.167 520.500 618.167 516.500 618.500 C 512.500 618.833 513 620.500 511.500 620.500 C 510 620.500 509.500 618.500 507.500 618.500 C 505.500 618.500 504.167 620.500 499.500 620.500 C 494.833 620.500 483.333 618.333 479.500 618.500 C 475.667 618.667 477.333 621.500 476.500 621.500 C 475.667 621.500 476.333 619 474.500 618.500 C 472.667 618 467.500 618 465.500 618.500 C 463.500 619 462.333 621.333 462.500 621.500 C 462.667 621.667 466 619.500 466.500 619.500 C 467 619.500 465.667 621.167 465.500 621.500" fill="none" stroke="#5f6391" stroke-width="2" stroke-linecap="round" stroke-linejoin="round"/>
<path d="M 259.500 615.500 C 260.167 615.500 263.833 614.500 263.500 615.500 C 263.167 616.500 258.500 620.167 257.500 621.500 C 256.500 622.833 256.833 623.333 257.500 623.500 C 258.167 623.667 260.833 622 261.500 622.500 C 262.167 623 261.500 625.833 261.500 626.500" fill="none" stroke="#5f6391" stroke-width="2" stroke-linecap="round" stroke-linejoin="round"/>
<path d="M 705.500 641.500 C 704.333 657.333 699.667 719.333 698.500 736.500 C 697.333 753.667 697.833 742.667 698.500 744.500 C 699.167 746.333 701.500 748 702.500 747.500 C 703.500 747 704.500 743 704.500 741.500 C 704.500 740 703.333 738.833 702.500 738.500 C 701.667 738.167 700 739.333 699.500 739.500" fill="none" stroke="#5f6391" stroke-width="2" stroke-linecap="round" stroke-linejoin="round"/>
<path d="M 717.500 643.500 C 716.833 648.667 713.833 668 713.500 674.500 C 713.167 681 715.667 681 715.500 682.500 C 715.333 684 712.667 683.500 712.500 683.500 C 712.333 683.500 713.667 682.167 714.500 682.500 C 715.333 682.833 717.333 684.500 717.500 685.500 C 717.667 686.500 716.167 688.167 715.500 688.500 C 714.833 688.833 713.667 688.167 713.500 687.500 C 713.333 686.833 714.333 685 714.500 684.500" fill="none" stroke="#5f6391" stroke-width="2" stroke-linecap="round" stroke-linejoin="round"/>
<path d="M 271.500 676.500 C 272 677.167 273.667 680 274.500 680.500 C 275.333 681 276.333 680 276.500 679.500 C 276.667 679 276.167 678 275.500 677.500 C 274.833 677 272.500 676.167 272.500 676.500 C 272.500 676.833 275 679 275.500 679.500" fill="none" stroke="#5f6391" stroke-width="2" stroke-linecap="round" stroke-linejoin="round"/>
<path d="M 288.500 698.500 C 289.833 699.333 294.167 700.833 296.500 703.500 C 298.833 706.167 300.667 712 302.500 714.500 C 304.333 717 307 717 307.500 718.500 C 308 720 305.500 723 305.500 723.500 C 305.500 724 307.167 721.833 307.500 721.500" fill="none" stroke="#5f6391" stroke-width="2" stroke-linecap="round" stroke-linejoin="round"/>
<path d="M 796.500 743.500 C 796.167 744 796.167 746.333 794.500 746.500 C 792.833 746.667 788.167 744.333 786.500 744.500 C 784.833 744.667 786 747.333 784.500 747.500 C 783 747.667 779.167 745.500 777.500 745.500 C 775.833 745.500 777.167 747.333 774.500 747.500 C 771.833 747.667 764 746.167 761.500 746.500 C 759 746.833 761 749.833 759.500 749.500 C 758 749.167 754 745 752.500 744.500 C 751 744 752 746.500 750.500 746.500 C 749 746.500 744.833 744.500 743.500 744.500 C 742.167 744.500 745.167 745.833 742.500 746.500 C 739.833 747.167 734 748.167 727.500 748.500 C 721 748.833 707.500 748.500 703.500 748.500" fill="none" stroke="#5f6391" stroke-width="2" stroke-linecap="round" stroke-linejoin="round"/>
<path d="M 700.500 748.500 C 700 750.167 697.667 756.500 697.500 758.500 C 697.333 760.500 698.500 760.667 699.500 760.500 C 700.500 760.333 702.500 757.833 703.500 757.500 C 704.500 757.167 705.500 758.167 705.500 758.500 C 705.500 758.833 704.500 760.333 703.500 759.500 C 702.500 758.667 700 754.167 699.500 753.500 C 699 752.833 700.333 755.167 700.500 755.500" fill="none" stroke="#5f6391" stroke-width="2" stroke-linecap="round" stroke-linejoin="round"/>
<path d="M 312.500 751.500 C 310.667 751.833 303.833 752.333 301.500 753.500 C 299.167 754.667 300 758.167 298.500 758.500 C 297 758.833 295.333 756 292.500 755.500 C 289.667 755 285.833 754.667 281.500 755.500 C 277.167 756.333 269.333 760 266.500 760.500 C 263.667 761 264.500 758.667 264.500 758.500 C 264.500 758.333 266.167 759.333 266.500 759.500" fill="none" stroke="#5f6391" stroke-width="2" stroke-linecap="round" stroke-linejoin="round"/>
<path d="M 699.500 761.500 C 699 765.833 697.667 781.333 696.500 787.500 C 695.333 793.667 694.500 795.833 692.500 798.500 C 690.500 801.167 686.667 800.667 684.500 803.500 C 682.333 806.333 680.833 813.167 679.500 815.500 C 678.167 817.833 676.667 816.833 676.500 817.500 C 676.333 818.167 680 817 678.500 819.500 C 677 822 669 829.833 667.500 832.500 C 666 835.167 668.500 835.333 669.500 835.500 C 670.500 835.667 673 834.500 673.500 833.500 C 674 832.500 672.667 830.167 672.500 829.500" fill="none" stroke="#5f6391" stroke-width="2" stroke-linecap="round" stroke-linejoin="round"/>
<path d="M 837.500 773.500 C 837.167 774.833 835.167 780 835.500 781.500 C 835.833 783 839.167 782.500 839.500 782.500 C 839.833 782.500 838 780.167 837.500 781.500 C 837 782.833 837.333 788.167 836.500 790.500 C 835.667 792.833 833.667 790.833 832.500 795.500 C 831.333 800.167 830.833 814.333 829.500 818.500 C 828.167 822.667 828.833 820.500 824.500 820.500 C 820.167 820.500 807.500 818.167 803.500 818.500 C 799.500 818.833 800.333 821.333 800.500 822.500 C 800.667 823.667 802.833 825.167 804.500 825.500 C 806.167 825.833 809.167 825.167 810.500 824.500 C 811.833 823.833 812.167 822 812.500 821.500" fill="none" stroke="#5f6391" stroke-width="2" stroke-linecap="round" stroke-linejoin="round"/>
<path d="M 691.500 800.500 C 691.333 801.667 691.167 806.167 690.500 807.500 C 689.833 808.833 687.833 807.167 687.500 808.500 C 687.167 809.833 688.833 814 688.500 815.500 C 688.167 817 686.833 817.667 685.500 817.500 C 684.167 817.333 681.333 815 680.500 814.500" fill="none" stroke="#5f6391" stroke-width="2" stroke-linecap="round" stroke-linejoin="round"/>
<path d="M 362.500 806.500 C 361.667 806.833 358 808.167 357.500 808.500 C 357 808.833 359.333 807.667 359.500 808.500 C 359.667 809.333 360.333 811 358.500 813.500 C 356.667 816 351 822.167 348.500 823.500 C 346 824.833 345 820.500 343.500 821.500 C 342 822.500 340 827.833 339.500 829.500 C 339 831.167 340.333 831.167 340.500 831.500" fill="none" stroke="#5f6391" stroke-width="2" stroke-linecap="round" stroke-linejoin="round"/>
<path d="M 371.500 806.500 C 372.667 807.833 376 813.333 378.500 814.500 C 381 815.667 384.833 813.333 386.500 813.500 C 388.167 813.667 388.500 814.667 388.500 815.500 C 388.500 816.333 385.500 817.167 386.500 818.500 C 387.500 819.833 392.833 823 394.500 823.500 C 396.167 824 396.167 821.833 396.500 821.500" fill="none" stroke="#5f6391" stroke-width="2" stroke-linecap="round" stroke-linejoin="round"/>
<path d="M 722.500 815.500 C 723.500 816.333 725.500 820.167 728.500 820.500 C 731.500 820.833 731.667 818 740.500 817.500 C 749.333 817 774.167 817 781.500 817.500 C 788.833 818 781.167 820.167 784.500 820.500 C 787.833 820.833 798.667 819.667 801.500 819.500" fill="none" stroke="#5f6391" stroke-width="2" stroke-linecap="round" stroke-linejoin="round"/>
<path d="M 354.500 819.500 C 354.667 820.167 356.333 822.833 355.500 823.500 C 354.667 824.167 351 821.833 349.500 823.500 C 348 825.167 348 831.333 346.500 833.500 C 345 835.667 342.167 834.833 340.500 836.500 C 338.833 838.167 335.833 843.500 336.500 843.500 C 337.167 843.500 343.167 837.667 344.500 836.500" fill="none" stroke="#5f6391" stroke-width="2" stroke-linecap="round" stroke-linejoin="round"/>
<path d="M 668.500 835.500 C 667.167 836.833 661.833 841.500 660.500 843.500 C 659.167 845.500 662.500 845 660.500 847.500 C 658.500 850 652 856.667 648.500 858.500 C 645 860.333 647.667 856.500 639.500 858.500 C 631.333 860.500 606.667 868.833 599.500 870.500 C 592.333 872.167 598 868.167 596.500 868.500 C 595 868.833 592.167 872.167 590.500 872.500 C 588.833 872.833 586.500 871 586.500 870.500 C 586.500 870 589.833 869.333 590.500 869.500 C 591.167 869.667 590.500 871.167 590.500 871.500" fill="none" stroke="#5f6391" stroke-width="2" stroke-linecap="round" stroke-linejoin="round"/>
<path d="M 472.500 855.500 C 472.667 856 471.500 857.833 473.500 858.500 C 475.500 859.167 482.167 858.833 484.500 859.500 C 486.833 860.167 487.333 861.833 487.500 862.500 C 487.667 863.167 486.333 863.833 485.500 863.500 C 484.667 863.167 483.667 860.500 482.500 860.500 C 481.333 860.500 479.500 863.500 478.500 863.500 C 477.500 863.500 476.500 860.833 476.500 860.500 C 476.500 860.167 478.167 861.667 478.500 861.500 C 478.833 861.333 478.500 859.833 478.500 859.500" fill="none" stroke="#5f6391" stroke-width="2" stroke-linecap="round" stroke-linejoin="round"/>
<path d="M 639.500 863.500 C 639.833 863.667 642.167 863.500 641.500 864.500 C 640.833 865.500 637 869 635.500 869.500 C 634 870 632.500 868 632.500 867.500 C 632.500 867 635 866.333 635.500 866.500 C 636 866.667 635.500 868.167 635.500 868.500" fill="none" stroke="#5f6391" stroke-width="2" stroke-linecap="round" stroke-linejoin="round"/>
<path d="M 506.500 864.500 C 507.333 865.667 510.167 870.667 511.500 871.500 C 512.833 872.333 512.667 869.667 514.500 869.500 C 516.333 869.333 520.500 871 522.500 870.500 C 524.500 870 523.333 866.667 526.500 866.500 C 529.667 866.333 538.667 868.500 541.500 869.500 C 544.333 870.500 543.500 872.333 543.500 872.500 C 543.500 872.667 541.833 870.833 541.500 870.500" fill="none" stroke="#5f6391" stroke-width="2" stroke-linecap="round" stroke-linejoin="round"/>
<path d="M 613.500 875.500 C 613.167 875.833 613.833 877.167 611.500 877.500 C 609.167 877.833 602 877 599.500 877.500 C 597 878 597.500 880.500 596.500 880.500 C 595.500 880.500 593.167 877.333 593.500 877.500 C 593.833 877.667 597.167 881.167 598.500 881.500 C 599.833 881.833 601.333 879.667 601.500 879.500 C 601.667 879.333 599.833 880.667 599.500 880.500 C 599.167 880.333 599.500 878.833 599.500 878.500" fill="none" stroke="#5f6391" stroke-width="2" stroke-linecap="round" stroke-linejoin="round"/>
<path d="M 544.500 877.500 C 545.667 877.833 548.167 879.333 551.500 879.500 C 554.833 879.667 561.500 878.167 564.500 878.500 C 567.500 878.833 568 881 569.500 881.500 C 571 882 572.667 882 573.500 881.500 C 574.333 881 573.500 879 574.500 878.500 C 575.500 878 578.167 878 579.500 878.500 C 580.833 879 580.167 881.333 582.500 881.500 C 584.833 881.667 591.667 879.333 593.500 879.500 C 595.333 879.667 593.500 882.333 593.500 882.500 C 593.500 882.667 593.500 880.833 593.500 880.500" fill="none" stroke="#5f6391" stroke-width="2" stroke-linecap="round" stroke-linejoin="round"/>
</svg>
